<svg height="512pt" viewBox="-87 0 512 512" width="512pt" xmlns="http://www.w3.org/2000/svg"><path d="m330.28125 397.191406c4.140625 0 7.5-3.359375 7.5-7.5-.054688-.1875 1.855469-22.183594-18.585938-31.226562l-10.300781-4.535156v-3.792969c0-4.851563-2.0625-9.316407-5.484375-12.421875l7.492188-20.824219c4.574218-12.699219 2.742187-26.316406-5.019532-37.359375-7.757812-11.039062-19.949218-17.371094-33.445312-17.371094h-19c.246094-.316406.488281-.632812.726562-.949218 16.234376-16.320313 28.71875-37.09375 36.199219-60.207032 3.203125-3.402344 6.300781-7.027344 9.234375-10.808594 0 0 .003906-.003906.003906-.003906 5.542969-7.160156 7.242188-16.574218 4.546876-25.183594l-5.683594-18.136718c-.398438-45.734375-13.535156-83.589844-38.027344-109.527344-23.070312-24.429688-54.726562-37.34375-91.546875-37.34375-31.128906 0-58.984375 9.175781-80.5625 26.535156-3.226563 2.597656-3.738281 7.320313-1.144531 10.546875 2.597656 3.226563 7.320312 3.738281 10.546875 1.140625 18.882812-15.191406 43.492187-23.222656 71.160156-23.222656 32.589844 0 60.476563 11.285156 80.640625 32.640625 16.15625 17.109375 26.777344 40.34375 31.359375 68.226563-2.578125-1.765626-5.398437-3.191407-8.394531-4.21875-13.058594-26.734376-40.21875-43.816407-70.175782-43.816407h-66.859374c-29.960938 0-57.121094 17.082031-70.179688 43.820313-3.054688 1.046875-5.921875 2.507812-8.539062 4.320312 3.527343-22.53125 10.878906-41.777344 21.988281-57.457031 2.394531-3.378906 1.59375-8.0625-1.785157-10.453125-3.378906-2.398438-8.0625-1.597656-10.457031 1.78125-17.707031 24.996094-26.84375 57.625-27.160156 96.996094l-5.695313 18.167968c-2.695312 8.609376-.996093 18.023438 4.550782 25.1875 2.933594 3.78125 6.035156 7.410157 9.234375 10.808594 7.484375 23.121094 19.976562 43.902344 36.214843 60.222656 5.011719 6.566407 10.480469 12.765626 16.199219 18.386719-.136719 34.199219.304688 33.269531-.402343 36.335938-.042969.148437-.078126.300781-.113282.457031-1.195312 4.5625-4.410156 8.429688-8.851562 10.382812l-13.613282 6c-1.09375-1.222656-2.375-2.292968-3.816406-3.167968-4.195312-2.542969-9.277344-3.125-13.957031-1.585938l-18.664063 6.160156c-6.894531 2.269532-11.527343 8.675782-11.527343 15.941407v3.792969l-10.3125 4.542968c-11.285157 4.988282-18.574219 16.171875-18.574219 28.488282v71.058593c0 8.566407 4.804688 16.226563 12.535156 19.984375 43.378906 21.140625 97.457032 33.996094 156.355469 33.996094 54.035156 0 109.113281-10.976562 156.347656-33.996094 7.738281-3.761718 12.542969-11.417968 12.542969-19.984375v-38.328125c0-4.144531-3.359375-7.5-7.5-7.5-4.144531 0-7.5 3.355469-7.5 7.5v38.328125c0 2.777344-1.570312 5.265625-4.105469 6.496094-3.195312 1.558594-6.460937 3.070313-9.78125 4.53125v-98.726563c.875.644532 13.886719 3.789063 13.886719 16.640626v2.726562c0 4.144531 3.355469 7.503906 7.5 7.503906zm-58.628906 85.417969v-26.300781h22.242187v18.855468c-7.195312 2.714844-14.589843 5.1875-22.242187 7.445313zm-102.761719-28.996094c-4.144531 0-7.5 3.355469-7.5 7.5v35.816407c-27.617187-.53125-54.5625-3.980469-80.261719-10.28125v-48.039063h175.519532v48.039063c-25.710938 6.300781-52.652344 9.75-80.257813 10.28125v-35.816407c0-4.144531-3.359375-7.5-7.5-7.5zm-125.003906 21.550781v-18.855468h22.242187v26.300781c-7.746094-2.304687-14.675781-4.589844-22.242187-7.445313zm22.242187-33.855468h-22.242187v-20.390625h22.242187zm205.523438-20.390625h22.242187v20.390625h-22.242187zm0-15v-61.9375c0-.0625 0-.117188.003906-.164063.019531-.09375.035156-.1875.046875-.28125.148437-.597656.570313-.9375.820313-1.089844.21875-.132812.53125-.261718.910156-.261718.175781 0 .363281.027344.5625.09375l18.683594 6.167968c.726562.238282 1.214843.917969 1.214843 1.691407v8.371093c-.007812.203126-.007812.40625 0 .609376v46.800781zm21.960937-117.761719c4.914063 6.992188 6.070313 15.613281 3.175781 23.65625l-7.136718 19.835938-10.960938-3.617188c-4.664062-1.535156-9.75-.957031-13.945312 1.589844-1.441406.871094-2.722656 1.941406-3.816406 3.164062l-13.617188-6c-4.441406-1.953125-7.652344-5.820312-8.847656-10.382812-.207032-.957032-.515625-2.019532-.515625-3.984375v-32.804688c.824219-.808593 1.636719-1.625 2.449219-2.457031h32.039062c8.542969 0 16.261719 4.011719 21.175781 11zm-160.757812-.179688c-2.902344-5.699218-4.375-11.863281-4.375-18.316406 0-22.28125 18.128906-40.410156 40.410156-40.410156s40.410156 18.128906 40.410156 40.410156c0 .808594-.023437 1.609375-.070312 2.40625-.011719.199219-.023438.398438-.039063.597656-.007812.097657-.015625.199219-.019531.296876-.015625.191406-.035156.382812-.050781.570312-.011719.117188-.023438.234375-.035156.351562-.015626.167969-.035157.335938-.054688.5-.003906.042969-.007812.082032-.011719.125-.546875 4.613282-1.875 9.046876-3.972656 13.234376-.039063.074218-.078125.152343-.117187.226562-6.957032 13.632812-20.765626 22.101562-36.039063 22.101562s-29.082031-8.46875-36.035156-22.09375zm43.535156 36.589844c17.214844-2.320312 32.351563-12.554687 40.933594-27.964844 1.875-1.253906 3.753906-2.589843 5.625-4 .050781 19.574219-.128907 20.242188.171875 23.078126-12.3125 13.175781-28.902344 21.371093-46.730469 23.171874zm-40.929687-241.738281h66.859374c20.863282 0 40.046876 10.253906 51.703126 26.921875h-170.269532c11.65625-16.667969 30.84375-26.921875 51.707032-26.921875zm-58.820313 41.921875h184.5c.183594 0 .371094.003906.554687.007812 1.269532.035157 2.542969.195313 3.8125.484376 6.933594 1.535156 12.5625 6.714843 14.695313 13.519531l9.628906 30.730469c2.632813 8.402343-3.8125 14.050781-11.609375 22.503906-13.445312 13.90625-30.9375 25.550781-50.203125 25.164062-8.136719-.148437-15.761719-9.273437-23.835937-18.933594-9.472656-11.332031-20.207032-24.175781-35.292969-24.175781s-25.820313 12.84375-35.296875 24.175781c-14.425781 17.261719-18.605469 20.945313-33.707031 18.109376-19.769531-3.707032-37.511719-19.429688-49.847657-35.328126-2.539062-3.28125-3.320312-7.589843-2.09375-11.515624 2.027344-6.460938 6.425782-20.503907 9.632813-30.734376 2.617187-8.359374 10.394531-14.007812 19.0625-14.007812zm18.707031 127.097656c-.042968-.054687-.082031-.109375-.125-.164062-6.652344-8.777344-12.054687-17.808594-15.933594-26.53125.753907.359375 1.507813.707031 2.265626 1.039062.015624.007813.03125.011719.046874.019532.074219.035156.148438.066406.222657.097656.078125.035156.160156.070312.242187.105468.046875.023438.097656.042969.148438.066407.128906.054687.257812.109375.386718.164062.007813.003907.015626.007813.023438.007813 9.058594 3.832031 18.226562 5.679687 27.414062 5.507812 14.976563-.277344 25.648438-13.046875 35.066407-24.3125 8.078125-9.667968 15.710937-18.796875 23.785156-18.796875s15.703125 9.128907 23.785156 18.796875c9.417969 11.265625 20.089844 24.035156 35.066407 24.3125.175781.003906.351562.003906.527343.007813h.226563.285156.105469c9.949219 0 19.851562-2.351563 29.601562-7.015625-5.878906 13.238281-14.808593 26.15625-24.582031 37.003906h-10.113281c-3.671875-27.015625-26.894531-47.90625-54.902344-47.90625-30.554687 0-55.410156 24.855469-55.410156 55.410156v.523438c0 .042968.003906.082031.003906.125 0 .148437.003906.296875.003906.445312 0 .027344.003907.058594.003907.085938 0 .171875.007812.34375.011718.515625 0 .046875.003906.089843.003906.136719.003907.117187.007813.230468.011719.347656.003907.042968.003907.082031.003907.125-.242188-.226563-.488282-.453125-.730469-.683594-.199219-.214844-.414063-.417969-.640625-.605469-5.929688-5.644531-11.628906-12.011719-16.804688-18.828125zm25.105469 44.75c8.582031 15.414063 23.71875 25.648438 40.9375 27.972656v14.285157c-17.828125-1.804688-34.417969-9.996094-46.734375-23.171875.304688-2.859375.121094-3.371094.171875-23.082032 1.875 1.410157 3.75 2.742188 5.625 3.996094zm-23.941406 43.917969c4.921875-2.164063 9.070312-5.527344 12.171875-9.660156 14.527344 13.292969 33.03125 21.410156 52.707031 23.0625v47.242187c0 4.144532 3.355469 7.5 7.5 7.5s7.5-3.355468 7.5-7.5v-47.242187c19.679687-1.652344 38.179687-9.769531 52.707031-23.0625 3.101563 4.128906 7.25 7.496093 12.167969 9.660156l15.386719 6.777344v76.316406h-175.523438v-76.316406zm-51.402344 7.925781 18.667969-6.164062c.644531-.207032 1.160156-.023438 1.476562.167968.25.152344.675782.488282.824219 1.117188.015625.085938.027344.171875.042969.253906.003906.042969.007812.097656.007812.164063v61.9375h-22.246094v-46.800781c.007813-.203126.007813-.40625 0-.609376v-8.375c.003907-.769531.492188-1.445312 1.226563-1.691406zm-30.109375 109.578125v-71.058593c0-6.382813 3.785156-12.179688 9.632812-14.765626l4.253907-1.875v98.726563c-3.320313-1.460937-6.589844-2.976563-9.785157-4.53125-2.53125-1.230469-4.101562-3.71875-4.101562-6.496094zm0 0"/><path d="m123.507812 165.949219c-4.144531 0-7.5 3.355469-7.5 7.5v3.269531c0 4.140625 3.355469 7.5 7.5 7.5 4.144532 0 7.5-3.359375 7.5-7.5v-3.269531c0-4.140625-3.359374-7.5-7.5-7.5zm0 0"/><path d="m214.273438 165.949219c-4.144532 0-7.5 3.355469-7.5 7.5v3.269531c0 4.140625 3.355468 7.5 7.5 7.5 4.140624 0 7.5-3.359375 7.5-7.5v-3.269531c0-4.140625-3.359376-7.5-7.5-7.5zm0 0"/><path d="m199.363281 153.3125c9.5-4.660156 18.742188-4.664062 28.242188 0 1.066406.523438 2.191406.773438 3.300781.773438 2.769531-.003907 5.4375-1.542969 6.738281-4.199219 1.824219-3.71875.289063-8.210938-3.429687-10.035157-13.757813-6.753906-27.707032-6.753906-41.460938 0-3.71875 1.824219-5.253906 6.316407-3.429687 10.035157s6.320312 5.257812 10.039062 3.425781zm0 0"/><path d="m106.875 154.085938c1.109375 0 2.234375-.25 3.300781-.773438 9.503907-4.664062 18.738281-4.660156 28.242188 0 3.71875 1.828125 8.214843.292969 10.035156-3.425781 1.828125-3.71875.292969-8.210938-3.425781-10.039063-13.757813-6.75-27.707032-6.75-41.464844 0-3.714844 1.824219-5.25 6.320313-3.425781 10.039063 1.300781 2.65625 3.964843 4.199219 6.738281 4.199219zm0 0"/><path d="m168.890625 299.738281c16.585937 0 30.078125-13.496093 30.078125-30.082031s-13.492188-30.078125-30.078125-30.078125c-4.144531 0-7.5 3.355469-7.5 7.5s3.355469 7.5 7.5 7.5c8.3125 0 15.078125 6.765625 15.078125 15.078125 0 8.316406-6.765625 15.082031-15.078125 15.082031-8.316406 0-15.078125-6.765625-15.078125-15.082031 0-1.027344.101562-2.054688.304688-3.046875.828124-4.058594-1.785157-8.019531-5.84375-8.851563-4.058594-.824218-8.019532 1.785157-8.851563 5.84375-.40625 1.980469-.609375 4.015626-.609375 6.054688 0 16.585938 13.492188 30.082031 30.078125 30.082031zm0 0"/></svg>