<svg
  id="Capa_1"
  enable-background="new 0 0 512 512"
  height="100%"
  viewBox="0 0 512 512"
  width="100%"
  xmlns="http://www.w3.org/2000/svg"
>
  <g>
    <path
      d="m108.851 156.575c-4.142 0-7.5 3.358-7.5 7.5v15.311c0 4.142 3.358 7.5 7.5 7.5 4.143 0 7.5-3.358 7.5-7.5v-15.311c0-4.141-3.357-7.5-7.5-7.5z"
    />
    <path
      d="m268.208 156.575c-4.142 0-7.5 3.358-7.5 7.5v15.311c0 4.142 3.358 7.5 7.5 7.5s7.5-3.358 7.5-7.5v-15.311c0-4.141-3.358-7.5-7.5-7.5z"
    />
    <path
      d="m395.625 157.281c0 19.167 15.594 34.761 34.761 34.761s34.761-15.594 34.761-34.761-15.594-34.761-34.761-34.761-34.761 15.594-34.761 34.761zm34.761-19.761c10.896 0 19.761 8.865 19.761 19.761s-8.865 19.761-19.761 19.761-19.761-8.865-19.761-19.761 8.865-19.761 19.761-19.761z"
    />
    <path
      d="m468.236 12.005c-24.132 0-43.764 19.632-43.764 43.764s19.633 43.765 43.764 43.765 43.764-19.634 43.764-43.765c0-24.132-19.633-43.764-43.764-43.764zm0 72.528c-15.861 0-28.764-12.904-28.764-28.765 0-15.86 12.904-28.764 28.764-28.764s28.764 12.904 28.764 28.765c0 15.86-12.904 28.764-28.764 28.764z"
    />
    <path
      d="m18.613 240.361c10.734 41.894 37.2 79.497 75.099 103.993-11.443 7.471-28.707 21.925-42.746 47.24-2.009 3.623-.701 8.188 2.921 10.196 3.623 2.009 8.188.701 10.196-2.921 10.407-18.766 22.756-30.62 31.283-37.261 2.14-1.667 4.153-3.097 5.985-4.313v43.799c-7.235 5.053-11.981 13.436-11.981 22.911s4.746 17.857 11.981 22.91v38.08h-58.423c.606-21.961 3.894-42.11 9.796-59.985 1.299-3.933-.837-8.175-4.77-9.474-3.932-1.299-8.174.837-9.473 4.771-7.071 21.412-10.656 45.7-10.656 72.188 0 4.142 3.358 7.5 7.5 7.5h306.409c4.142 0 7.5-3.358 7.5-7.5 0-32.813-5.545-58.931-13.315-79.446 10.989-34.508 4.39-71.406-16.445-99.631 18.647-20.921 32.028-46.007 38.953-73.038 20.034-19.075 18.555-43.276 18.633-43.631 0-17.246-2.342-34.343-6.961-50.818-6.249-22.288-20.785-40.7-39.714-52.344-13.83-18.992-31.017-34.797-51.122-46.974-3.543-2.146-8.155-1.013-10.301 2.53s-1.013 8.154 2.53 10.3c10.544 6.386 20.213 13.86 28.929 22.35-5.189-1.029-11.672-1.743-17.738-1.743h-188.306c-6.071 0-12.612.732-17.671 1.729 29.708-28.827 69.828-45.436 111.823-45.436 19.1 0 37.812 3.338 55.617 9.921 3.885 1.438 8.199-.548 9.635-4.433 1.437-3.885-.548-8.199-4.433-9.635-19.475-7.202-39.938-10.853-60.819-10.853-55.967 0-108.874 26.984-141.846 72.239-18.934 11.643-33.473 30.057-39.722 52.349-4.619 16.475-6.961 33.572-6.961 50.818v.573c.051 16.896 7.201 32.164 18.613 43.039zm19.642 12.542c6.734 2.628 14.369 4.147 21.994 4.147h59.423v.003c4.481 33.968 34.583 49.978 68.856 49.978 6.378 0 13.062-.58 19.421-1.833 2.219 1.806 44.695 36.381 46.455 37.813-20.858 9.392-43.525 14.142-65.876 14.142-68.597.002-127.312-43.057-150.273-104.25zm134.691-16.202c-10.718 14.099-8 34.155 6.026 44.91l12.729 10.362c-.086.003-.171.008-.257.011-.965.029-1.935.048-2.915.048-29.025 0-53.922-13.226-54.397-42.603-.496-30.14 24.309-66.241 54.397-66.241 30.24 0 54.9 36.165 54.391 66.371l-24.985-18.991c-14.094-10.713-34.276-7.96-44.989 6.133zm-68.575 187.304c0-7.239 5.95-12.934 12.934-12.934h32.936.004c6.986.007 12.929 5.698 12.929 12.934 0 7.185-5.869 12.881-12.851 12.929-.028 0-.055.004-.083.004h-32.936c-.025 0-.049-.003-.074-.003-6.977-.04-12.859-5.739-12.859-12.93zm73.802 0c0-9.475-4.746-17.857-11.98-22.91v-30.327c7.535.945 15.387 1.387 22.337 1.387 7.8 0 15.534-.568 22.336-1.439v30.379c-7.235 5.053-11.98 13.436-11.98 22.911 0 9.474 4.746 17.856 11.98 22.91v38.081h-44.673v-38.081c7.235-5.055 11.98-13.437 11.98-22.911zm94.515 0c0 7.099-5.782 12.888-12.855 12.929-.026 0-.052.004-.078.004h-32.936c-.026 0-.052-.003-.078-.004-7.121-.04-12.855-5.877-12.855-12.929 0-7.21 5.92-12.934 12.933-12.934h32.936c7.074 0 12.933 5.774 12.933 12.934zm-11.98-27.918c-.317-.011-.634-.016-.953-.016h-32.936c-.318 0-.636.005-.953.016v-27.938c12.004-2.602 23.901-6.555 34.841-11.5v39.438zm-72.178-227.899c-21.327 0-40.098 13.005-52.436 30.117h-75.845c-.882 0-1.5-.61-1.502-1.131.064-.958-.536-16.425 4.779-35.384 3.796-13.539 16.482-22.994 30.852-22.994h188.305c14.37 0 27.056 9.455 30.852 22.993 5.221 18.63 4.604 32.75 4.779 35.358-.002.548-.619 1.158-1.502 1.158h-75.845c-12.425-17.23-31.268-30.117-52.437-30.117zm-72.178 227.899v-39.366c11.167 5.061 22.823 8.908 34.841 11.494v27.873c-.317-.011-.634-.016-.953-.016h-32.936s0 0-.001 0c-.318-.001-.635.005-.951.015zm0 88.908v-33.073c.317.011.634.016.953.016h32.936c.318 0 .636-.005.953-.016v33.073zm109.514 0v-33.073c.317.011.634.016.953.016h32.936c.318 0 .636-.005.953-.016v33.073zm49.842 0v-38.081c7.235-5.053 11.981-13.435 11.981-22.91s-4.746-17.857-11.981-22.911v-43.791c18.593 12.398 56.206 47.313 58.424 127.691h-58.424zm49.82-94.426c-20.407-36.215-47.366-49.792-53.407-52.477l-83.771-68.188c-.064-.053-.13-.104-.196-.155-7.483-5.689-9.02-16.404-3.268-23.971 5.704-7.499 16.453-8.984 23.972-3.269 7.709 5.859 69.109 52.529 79.202 60.2 27.314 20.772 41.448 54.164 37.468 87.86zm13.288-137.671c-6.683 17.86-16.554 34.467-29.145 48.97-3.417-3.518-7.954-7.618-12.533-11.1l-40.23-30.579c.191-1.035.363-2.079.501-3.139h59.402c7.678.001 15.344-1.526 22.005-4.152zm-317.412-102.918c8.983-32.042 38.766-54.931 72.974-54.931h188.305c34.362 0 64.027 23.022 72.973 54.931 4.25 15.156 6.404 30.892 6.404 46.769-.078.331 1.31 19.977-15.975 34.582-8.476 7.155-18.928 10.72-29.274 10.72h-59.158c-.799-9.025-3.476-19.102-7.992-28.746h67.151c9.073 0 16.476-7.229 16.502-16.118-.147-2.193.558-18.416-5.335-39.446-5.603-19.986-24.229-33.944-45.295-33.944h-188.307c-21.065 0-39.69 13.958-45.294 33.944-5.83 20.796-5.139 36.523-5.336 39.478.042 8.87 7.445 16.087 16.502 16.087h67.151c-4.257 9.097-7.144 19.156-7.992 28.746h-59.158c-24.851 0-45.175-20.091-45.249-44.771v-.531c-.001-15.878 2.154-31.613 6.403-46.77z"
    />
  </g>
</svg>
