<svg id="Layer_1" enable-background="new 0 0 512.022 512.022" height="512" viewBox="0 0 512.022 512.022" width="512" xmlns="http://www.w3.org/2000/svg"><path d="m396.011 213.044v-178.299c0-19.159-15.587-34.745-34.746-34.745h-282.509c-19.159 0-34.745 15.586-34.745 34.745v370.51c0 19.159 15.586 34.745 34.745 34.745h213.255v56c0 12.236 13.25 19.998 23.938 13.892l48.062-27.464c53.084 30.334 50.309 29.572 56 29.572 8.836 0 16-7.174 16-16v-109.026c56.948-54.71 34.391-149.816-40-173.93zm-317.255 194.956c-1.514 0-2.745-1.231-2.745-2.745v-370.51c0-1.514 1.231-2.745 2.745-2.745h282.51c1.514 0 2.745 1.231 2.745 2.745v173.255c-57.346 0-104 46.654-104 104 0 29.428 12.288 56.037 32 74.974v21.026zm325.255 60.429-32.062-18.321c-4.92-2.811-10.957-2.811-15.877 0l-32.062 18.321v-60.434c25.513 10.671 54.453 10.685 80 0v60.434zm-40-84.429c-39.701 0-72-32.299-72-72s32.299-72 72-72 72 32.299 72 72-32.299 72-72 72z"/><path d="m355.996 353.002c-6.25 0-7.046-1.479-32.86-18.689-7.353-4.902-9.34-14.836-4.438-22.188 4.902-7.353 14.836-9.339 22.188-4.438l10.688 7.125 23.125-34.687c4.901-7.353 14.837-9.339 22.188-4.438 7.353 4.902 9.34 14.836 4.438 22.188l-32 48c-3.085 4.625-8.159 7.127-13.329 7.127z"/><path d="m276.011 112h-136c-8.836 0-16-7.164-16-16s7.164-16 16-16h136c8.837 0 16 7.164 16 16s-7.164 16-16 16z"/><path d="m276.011 176h-136c-8.836 0-16-7.164-16-16s7.164-16 16-16h136c8.837 0 16 7.164 16 16s-7.164 16-16 16z"/><path d="m220.011 240h-80c-8.836 0-16-7.164-16-16s7.164-16 16-16h80c8.836 0 16 7.164 16 16s-7.164 16-16 16z"/></svg>