<svg height="512" viewBox="0 0 60 52" width="512" xmlns="http://www.w3.org/2000/svg"><g id="Page-1" fill="none" fill-rule="evenodd"><g id="008---Certificate" fill="rgb(0,0,0)" fill-rule="nonzero"><path id="Shape" d="m55 0h-50c-2.76005315.00330612-4.99669388 2.23994685-5 5v36c.00330612 2.7600532 2.23994685 4.9966939 5 5h30v5c.0000863.4043959.2437275.7689341.6173454.923678.373618.1547439.8036603.0692299 1.0896546-.216678l3.293-3.293 3.293 3.293c.2859943.2859079.7160366.3714219 1.0896546.216678.3736179-.1547439.6172591-.5192821.6173454-.923678v-5h10c2.7600532-.0033061 4.9966939-2.2399468 5-5v-36c-.0033061-2.76005315-2.2399468-4.99669388-5-5zm-22.69 19.565c-.1545714-.071304-.2656877-.21227-.2989194-.3792198s.0154345-.339721.1309194-.4647802c.8947876-.9724915.8947876-2.4685085 0-3.441-.115846-.1252062-.1646282-.2983694-.1311751-.465635.0334531-.1672657.145084-.3083462.3001751-.379365 1.1978836-.5574397 1.7696612-1.9390907 1.316-3.18-.0590427-.1597653-.0380177-.3381419.0565535-.4798008.0945713-.141659.2512533-.2294713.4214465-.2361992 1.3205942-.055489 2.378511-1.11340581 2.434-2.434.0066206-.17044735.0945709-.32738359.2364986-.42200207.1419277-.09461847.320619-.11544326.4805014-.05599793 1.2411169.45097199 2.6211553-.12057223 3.18-1.317.0707235-.15487919.2115488-.26635097.3785279-.29962795.1669791-.03327697.3397785.0156931.4644721.13162795.972823.89492251 2.469177.89492251 3.442 0 .1250195-.11585881.2980576-.16465912.4651897-.13119308.1671322.03346603.3080394.1451298.3788103.30019308.5577522 1.19700248 1.9383917 1.76854124 3.179 1.316.1598824-.05944533.3385737-.03862054.4805014.05599793.1419277.09461848.229878.25155472.2364986.42200207.0561092 1.32241089 1.1164988 2.3810614 2.439 2.435.1701218.0064001.3268598.0939811.4214758.2355092s.1156362.3198407.0565242.4794908c-.4540355 1.2411828.1183592 2.6232747 1.317 3.18.1545714.071304.2656877.21227.2989194.3792198s-.0154345.339721-.1309194.4647802c-.8947876.9724915-.8947876 2.4685085 0 3.441.115846.1252062.1646282.2983694.1311751.465635-.0334531.1672657-.145084.3083462-.3001751.379365-1.1978836.5574397-1.7696612 1.9390907-1.316 3.18.0590427.1597653.0380177.3381419-.0565535.4798008-.0945713.141659-.2512533.2294713-.4214465.2361992-1.3243866.0531408-2.3858592 1.1146134-2.439 2.439-.0066206.1704473-.0945709.3273836-.2364986.4220021-.1419277.0946184-.320619.1154432-.4805014.0559979-1.241128-.4514809-2.6215072.1202045-3.18 1.317-.0681149.1563514-.2093456.2687366-.377.3-.1674037.0349961-.341352-.0139035-.466-.131-.9730093-.8944445-2.4689907-.8944445-3.442 0-.1247339.1169445-.2986023.1658216-.466.131-.1678798-.0312893-.3094055-.1436112-.378-.3-.5573987-1.1973716-1.9383809-1.7690522-3.179-1.316-.1598824.0594453-.3385737.0386205-.4805014-.0559979-.1419277-.0946185-.229878-.2515548-.2364986-.4220021-.0530721-1.3247534-1.1142906-2.386842-2.439-2.441-.1701218-.0064001-.3268598-.0939811-.4214758-.2355092s-.1156362-.3198407-.0565242-.4794908c.4547262-1.2398692-.1152952-2.6214759-1.312-3.18zm10.984 18.727-.294.294v-9.4c.1338373-.000359.2628359.0500255.361.141.4634267.4343826 1.0748209.6760799 1.71.676.1698832-.0003349.3393368-.0170794.506-.05.7957314-.1553423 1.4667219-.6869159 1.8-1.426.1171551-.2521209.4081537-.3721741.669-.276.3043065.1078015.626439.1563421.949.143v10.192l-2.293-2.293c-.3904999-.3903819-1.0235001-.3903819-1.414 0zm-.294 10.294-2.293-2.293c-.3904999-.3903819-1.0235001-.3903819-1.414 0l-2.293 2.293v-20.194c.322565.0134164.6447116-.0351262.949-.143.2603131-.0967318.5512373.0230349.668.275.334207.7409883 1.0078067 1.2732291 1.806 1.427.1899354.037579.3834477.0540124.577.049v11c.0000863.4043959.2437275.7689341.6173454.923678.373618.1547439.8036603.0692299 1.0896546-.216678l.293-.293zm15-7.586c0 1.6568542-1.3431458 3-3 3h-10v-4.586l1-1 3.293 3.293c.2859943.2859079.7160366.3714219 1.0896546.216678.3736179-.1547439.6172591-.5192821.6173454-.923678v-13.693c.2791025-.3918875.4385441-.8563176.459-1.337.0122103-.2773862.2345905-.4993321.512-.511.8106989-.031264 1.5573205-.4491184 2.0079431-1.123766.4506227-.6746477.5506672-1.5243754.2690569-2.285234-.0954663-.2602775.0245348-.5502804.276-.667.7375726-.3388503 1.2679823-1.010767 1.4263294-1.8068569s-.0745663-1.6198361-.6263294-2.2151431c-.187958-.2043525-.187958-.5186475 0-.723.5517754-.5951202.7847067-1.4187411.6263468-2.2146973-.1583598-.7959563-.6888021-1.4676998-1.4263468-1.8063027-.2522247-.1160008-.3728454-.4064484-.277-.667.2816103-.7608586.1815658-1.6105863-.2690569-2.28523395-.4506226-.67464762-1.1972442-1.09250207-2.0079431-1.12376605-.2774095-.01166795-.4997897-.2336138-.512-.511-.0303163-.8109852-.4476853-1.55824793-1.1222969-2.00937462-.6746115-.4511267-1.5246376-.5513972-2.2857031-.26962538-.2603383.09830188-.5523248-.02190215-.668-.275-.3388503-.7375726-1.010767-1.26798235-1.8068569-1.42632941-.7960899-.15834707-1.6198361.07456633-2.2151431.62632941-.204021.18782316-.517979.18782316-.722 0-.5951202-.55177539-1.4187411-.78470668-2.2146973-.62634683-.7959563.15835986-1.4676998.6888021-1.8063027 1.42634683-.1160751.25324628-.408126.37373368-.669.276-.7610655-.28177182-1.6110916-.18150132-2.2857031.26962538-.6746116.45112669-1.0919806 1.19838942-1.1222969 2.00937462-.0122103.2773862-.2345905.49933205-.512.511-.8106989.03126398-1.5573205.44911843-2.0079431 1.12376605-.4506227.67464765-.5506672 1.52437535-.2690569 2.28523395.0954663.2602775-.0245348.5502804-.276.667-.7375726.3388503-1.2679823 1.010767-1.4263294 1.8068569s.0745663 1.6198361.6263294 2.2151431c.187958.2043525.187958.5186475 0 .723-.5517754.5951202-.7847067 1.4187411-.6263468 2.2146973.1583598.7959563.6888021 1.4676998 1.4263468 1.8063027.2522247.1160008.3728454.4064484.277.667-.2816103.7608586-.1815658 1.6105863.2690569 2.285234.4506226.6746476 1.1972442 1.092502 2.0079431 1.123766.2774095.0116679.4997897.2336138.512.511.0206473.4803382.1800799.9443948.459 1.336v16.693h-30c-1.65685425 0-3-1.3431458-3-3v-36c0-1.65685425 1.34314575-3 3-3h50c1.6568542 0 3 1.34314575 3 3z"/><path id="Shape" d="m11 36c-1.65685425 0-3-1.3431458-3-3v-20c0-1.6568542 1.34314575-3 3-3h18c.5522847 0 1-.44771525 1-1s-.4477153-1-1-1h-18c-2.76005315.00330612-4.99669388 2.2399468-5 5v20c.00330612 2.7600532 2.23994685 4.9966939 5 5h19c.5522847 0 1-.4477153 1-1s-.4477153-1-1-1z"/><path id="Shape" d="m12 24h14c.5522847 0 1-.4477153 1-1s-.4477153-1-1-1h-14c-.5522847 0-1 .4477153-1 1s.4477153 1 1 1z"/><path id="Shape" d="m12 20h14c.5522847 0 1-.4477153 1-1s-.4477153-1-1-1h-14c-.5522847 0-1 .4477153-1 1s.4477153 1 1 1z"/><path id="Shape" d="m12 16h14c.5522847 0 1-.4477153 1-1s-.4477153-1-1-1h-14c-.5522847 0-1 .4477153-1 1s.4477153 1 1 1z"/><path id="Shape" d="m11.083 33.4c.1591192.3645881.5192018.6001929.917.6.1376715.0006203.2739411-.0276557.4-.083.9258001-.3439487 1.776646-.8630801 2.506-1.529.2707472-.2701945.5074982-.5724299.705-.9.3818691.4293041.8306648.7940139 1.329 1.08.6950063.4544248 1.5600354.5649952 2.347.3.3016624-.1171102.5745288-.2978842.8-.53.4525165.2827712.9510406.4841438 1.473.595l.756.179c1.5431012.4519898 3.146434.6644634 4.754.63.3563724-.0257231.671951-.2396147.8278603-.5611038.1559094-.3214892.1284631-.701734-.072-.9975s-.5434879-.4621193-.8998603-.4363962c-1.4027777.0183205-2.8001547-.1772583-4.144-.58l-.773-.183c-.933-.215-1.173-.591-1.272-.856-.1742648-.4652777-.6637008-.7320512-1.1491732-.6263718-.4854725.1056794-.8197323.5517578-.7848268 1.0473718.0111753.1792964-.0737404.3510317-.223.451-.2336378.0297097-.4697876-.0311168-.66-.17-.808721-.5034842-1.4168761-1.2728711-1.72-2.176-.1720598-.4650259-.6588967-.733746-1.1440759-.6314975s-.8221655.5445843-.7919241 1.0394975c.0168363.7153537-.2633692 1.405731-.774 1.907-.5552702.4855966-1.196226.8633875-1.89 1.114-.2432838.1059929-.4344616.3043394-.5314311.5513585s-.0917781.522452.0144311.7656415z"/><path id="Shape" d="m43 25c4.418278 0 8-3.581722 8-8s-3.581722-8-8-8-8 3.581722-8 8c.0049599 4.4162219 3.5837781 7.9950401 8 8zm0-14c3.3137085 0 6 2.6862915 6 6s-2.6862915 6-6 6-6-2.6862915-6-6c.0033074-3.3123376 2.6876624-5.9966926 6-6z"/></g></g></svg>