<svg height="512pt" viewBox="-6 0 512 512" width="512pt" xmlns="http://www.w3.org/2000/svg"><path d="m115.820312 273.058594c-5.722656-10.679688-5.722656-23.4375 0-34.117188l87.855469-163.960937c8.535157-15.933594 8.089844-34.703125-1.195312-50.210938-9.285157-15.511719-25.617188-24.769531-43.695313-24.769531-18.804687 0-36.007812 10.296875-44.890625 26.875l-106.035156 197.898438c-10.480469 19.550781-10.480469 42.898437 0 62.453124l106.035156 197.898438c8.882813 16.578125 26.085938 26.875 44.890625 26.875 18.078125 0 34.410156-9.257812 43.695313-24.769531 9.285156-15.507813 9.730469-34.277344 1.195312-50.210938zm0 0"/><path d="m260.492188 273.058594c-5.722657-10.679688-5.722657-23.4375 0-34.117188l87.855468-163.960937c8.535156-15.933594 8.089844-34.703125-1.195312-50.210938-9.285156-15.511719-25.621094-24.769531-43.695313-24.769531-18.804687 0-36.007812 10.296875-44.890625 26.875l-106.035156 197.898438c-10.476562 19.550781-10.476562 42.898437 0 62.453124l106.035156 197.898438c8.882813 16.578125 26.085938 26.875 44.890625 26.875 18.078125 0 34.410157-9.257812 43.695313-24.769531 9.285156-15.507813 9.730468-34.277344 1.195312-50.210938zm0 0"/><path d="m405.164062 273.058594c-5.722656-10.679688-5.722656-23.4375 0-34.117188l87.855469-163.960937c8.539063-15.933594 8.089844-34.703125-1.195312-50.210938-9.285157-15.511719-25.617188-24.769531-43.695313-24.769531-18.804687 0-36.007812 10.296875-44.890625 26.875l-106.035156 197.898438c-10.476563 19.550781-10.476563 42.898437 0 62.453124l106.035156 197.898438c8.882813 16.578125 26.085938 26.875 44.890625 26.875 18.078125 0 34.410156-9.257812 43.695313-24.769531 9.285156-15.507813 9.734375-34.277344 1.195312-50.210938zm0 0"/></svg>