<svg id="Capa_1" enable-background="new 0 0 450.673 450.673" height="512" viewBox="0 0 450.673 450.673" width="512" xmlns="http://www.w3.org/2000/svg"><g><g><g><path d="m408.032 105.5c-4.411 0-7.352-2.941-7.352-7.352v-83.077h-33.819v80.871c0 4.411-2.941 7.352-7.352 7.352s-7.352-2.941-7.352-7.352v-88.222c0-4.411 2.941-7.352 7.352-7.352h48.523c4.411 0 7.352 2.941 7.352 7.352v90.429c0 4.41-3.676 7.351-7.352 7.351z"/></g><g><path d="m338.189 392.225h-63.227c-4.411 0-7.352-2.941-7.352-7.352s2.941-7.352 7.352-7.352h63.227c7.352 0 13.969-5.882 13.969-13.969v-41.171c0-4.411 2.941-7.352 7.352-7.352s7.352 2.941 7.352 7.352v41.171c-.001 15.44-13.234 28.673-28.673 28.673z"/></g><g><path d="m380.094 440.013h-105.132c-4.411 0-7.352-2.941-7.352-7.352s2.941-7.352 7.352-7.352h104.397c11.028 0 20.585-9.558 20.585-20.585v-84.547c0-4.411 2.941-7.352 7.352-7.352s7.352 2.941 7.352 7.352v83.812c.736 19.849-15.438 36.024-34.554 36.024z"/></g><g><path d="m408.032 280.476c-4.411 0-7.352-2.941-7.352-7.352v-127.188c0-4.411 2.941-7.352 7.352-7.352s7.352 2.941 7.352 7.352v127.188c0 3.676-3.676 7.352-7.352 7.352z"/></g><g><g><path d="m224.969 346.643c-15.439 0-30.878-5.882-46.317-17.645-1.47-1.47-2.206-2.941-2.941-5.146 0-2.206 0-3.676 1.47-5.146l41.906-52.934c2.941-3.676 8.822-3.676 11.763 0l41.906 52.934c1.47 1.47 1.47 3.676 1.47 5.146 0 2.206-1.47 3.676-2.941 5.146-15.438 11.028-30.877 17.645-46.316 17.645zm-31.613-25.732c21.321 13.969 41.906 13.969 63.227 0l-31.613-39.7z"/></g><g><path d="m393.328 329.734h-126.453c-2.206 0-4.411-.735-5.882-2.941l-33.084-41.906c-.735-1.47-2.206-1.47-2.941-1.47s-2.206 0-2.941 1.47l-33.084 41.906c-1.47 1.47-3.676 2.941-5.882 2.941h-126.451c-31.613 0-56.61-25.732-56.61-56.61v-127.188c0-31.613 25.732-56.61 56.61-56.61h337.453c31.613 0 56.61 25.732 56.61 56.61v127.188c0 31.613-25.732 56.61-57.345 56.61zm-122.777-14.704h122.777c23.526 0 41.906-19.115 41.906-41.906v-127.188c0-23.526-19.115-41.906-41.906-41.906h-336.718c-23.526 0-41.906 19.115-41.906 41.906v127.188c0 23.526 19.115 41.906 41.906 41.906h122.777l30.878-39.7c3.676-4.411 8.822-7.352 14.704-7.352s11.028 2.206 14.704 7.352z"/></g><g><path d="m393.328 294.445h-108.809c-2.206 0-4.411-.735-5.882-2.941l-52.199-65.432c-.735-1.47-2.206-1.47-3.676 0l-51.462 65.432c-1.47 1.47-3.676 2.941-5.882 2.941h-108.808c-11.763 0-21.321-9.557-21.321-21.321v-127.188c0-11.763 9.557-21.321 21.321-21.321h337.453c11.763 0 21.321 9.558 21.321 21.321v127.188c0 11.763-10.293 21.321-22.056 21.321zm-105.133-14.704h105.868c3.676 0 6.617-2.941 6.617-6.617v-127.188c0-3.676-2.941-6.617-6.617-6.617h-337.453c-3.676 0-6.617 2.941-6.617 6.617v127.188c0 3.676 2.941 6.617 6.617 6.617h105.868l49.993-62.491c2.941-4.411 8.087-6.617 13.233-6.617 5.146 0 10.293 2.206 13.233 6.617z"/></g></g><g><path d="m262.464 450.305h-74.99c-11.028 0-20.585-9.558-20.585-20.585v-41.171c0-11.028 9.557-20.585 20.585-20.585h74.254c11.028 0 20.585 9.558 20.585 20.585v41.171c.736 11.028-8.821 20.585-19.849 20.585zm-74.99-68.373c-2.941 0-5.882 2.941-5.882 5.882v41.171c0 2.941 2.941 5.882 5.882 5.882h74.254c2.941 0 5.882-2.941 5.882-5.882v-41.171c0-2.941-2.941-5.882-5.882-5.882z"/></g></g></g></svg>