<svg height="512" viewBox="0 0 52 60" width="512" xmlns="http://www.w3.org/2000/svg"><g id="Page-1" fill="none" fill-rule="evenodd"><g id="019---Diving-Vest" fill="rgb(0,0,0)" fill-rule="nonzero"><path id="Shape" d="m52 40v-4c-.002145-.7113268-.3832487-1.3675874-1-1.722v-1.438c.0258361-1.8923336-1.0447574-3.6289789-2.747-4.456-3.853-1.801-6.253-6.163-6.253-11.384.1482342-4.9739227.8083841-9.91935054 1.97-14.758.1265952-.50688779-.1583486-1.02579925-.654-1.191-2.0437964-.65240963-4.1710636-1.00639282-6.316-1.051-.4951318-.00000626-.9157205.36232092-.989.852-.1.632-.227 1.386-.394 2.221-1.691 1.379-4.677 2.927-9.617 2.927s-7.926-1.548-9.617-2.927c-.167-.835-.3-1.589-.394-2.221-.0732795-.48967908-.4938682-.85200626-.989-.852-2.1449364.04460718-4.2722036.39859037-6.316 1.051-.49565138.16520075-.7805952.68411221-.654 1.191 1.16161585 4.83864946 1.8217658 9.7840773 1.97 14.758 0 5.221-2.4 9.583-6.25 11.383-1.70374135.8263136-2.77567444 2.5636248-2.75 4.457v1.438c-.61675126.3544126-.997855 1.0106732-1 1.722v4c.002145.7113268.38324874 1.3675874 1 1.722v4.556c-.61675126.3544126-.997855 1.0106732-1 1.722v4c.002145.7113268.38324874 1.3675874 1 1.722v3.278c0 1.6568542 1.34314575 3 3 3h18c1.5799521-.0044337 3.0641457-.758033 4-2.031.9358543 1.272967 2.4200479 2.0265663 4 2.031h18c1.6568542 0 3-1.3431458 3-3v-3.278c.6167513-.3544126.997855-1.0106732 1-1.722v-4c-.002145-.7113268-.3832487-1.3675874-1-1.722v-4.556c.6167513-.3544126.997855-1.0106732 1-1.722zm-2 12h-18v-4h18zm-48 0v-4h18v4zm0-16h18v4h-18zm48 0v4h-18v-4zm-20 5h-3v-6h3zm-5 0h-3v-6h3zm-4.722 1c.3544126.6167513 1.0106732.997855 1.722 1h3v2h-3c-.7113268.002145-1.3675874.3832487-1.722 1h-17.278v-4zm1.722 5h3v6h-3zm5 0h3v6h-3zm4.722-1c-.3544126-.6167513-1.0106732-.997855-1.722-1h-3v-2h3c.7113268-.002145 1.3675874-.3832487 1.722-1h17.278v4zm10.09-43.314c-1.0877489 4.6975574-1.6948733 9.4935722-1.812 14.314 0 6.006 2.838 11.063 7.41 13.2.9960325.4983698 1.6152655 1.5265303 1.59 2.64v1.16h-17.278c-.3544126-.6167513-1.0106732-.997855-1.722-1h-3v-11.1c7.15-1.253 10.138-15.743 10.845-19.863 1.340029.08911487 2.6684343.30644158 3.967.649zm-15.812 5.314c3.1242328.08817315 6.2179333-.63537857 8.979-2.1-1.542 6.162-4.544 14.1-8.979 14.1s-7.437-7.938-8.979-14.1c2.7610667 1.46462143 5.8547672 2.18817315 8.979 2.1zm-21.407 22.2c4.569-2.137 7.407-7.194 7.407-13.2-.1171267-4.8204278-.7242511-9.6164426-1.812-14.314 1.2988755-.34110332 2.6271411-.55840717 3.967-.649.707 4.122 3.694 18.624 10.845 19.877v11.086h-3c-.7113268.002145-1.3675874.3832487-1.722 1h-17.278v-1.16c-.02470672-1.1141452.59580106-2.142482 1.593-2.64zm17.407 27.8h-18c-.55228475 0-1-.4477153-1-1v-3h17.278c.3544126.6167513 1.0106732.997855 1.722 1h3c0 1.6568542-1.3431458 3-3 3zm26 0h-18c-1.6568542 0-3-1.3431458-3-3h3c.7113268-.002145 1.3675874-.3832487 1.722-1h17.278v3c0 .5522847-.4477153 1-1 1z"/></g></g></svg>