<svg id="Layer_1" height="512" viewBox="0 0 36 36" width="512" xmlns="http://www.w3.org/2000/svg" data-name="Layer 1"><path d="m23.33 12.67h-14.93c-.59 0-1.07-.48-1.07-1.07s.48-1.07 1.07-1.07h14.93c.59 0 1.07.48 1.07 1.07s-.48 1.07-1.07 1.07z"/><path d="m14.8 18h-6.4c-.59 0-1.07-.48-1.07-1.07s.48-1.07 1.07-1.07h6.4c.59 0 1.07.48 1.07 1.07s-.48 1.07-1.07 1.07z"/><path d="m14.8 23.33h-6.4c-.59 0-1.07-.48-1.07-1.07s.48-1.07 1.07-1.07h6.4c.59 0 1.07.48 1.07 1.07s-.48 1.07-1.07 1.07z"/><g><path d="m16.93 31.87h-11.73c-.28 0-.56-.11-.75-.31-.2-.2-.31-.47-.31-.75v-21.53c0-.28.11-.56.31-.75l4.08-4.08c.2-.2.47-.31.75-.31h17.25c.59 0 1.07.48 1.07 1.07v10.66c0 .59.48 1.07 1.07 1.07s1.07-.48 1.07-1.07v-10.67c0-1.76-1.44-3.2-3.2-3.2h-17.26c-.85 0-1.66.33-2.26.94l-4.08 4.08c-.6.6-.94 1.41-.94 2.26v21.52c0 .84.34 1.67.94 2.26.6.6 1.41.94 2.26.94h11.73c.59 0 1.07-.48 1.07-1.07s-.48-1.07-1.07-1.07z"/><path d="m26.53 19.07c-4.12 0-7.47 3.35-7.47 7.47s3.35 7.47 7.47 7.47 7.47-3.35 7.47-7.47-3.35-7.47-7.47-7.47zm0 2.13c1.09 0 2.09.33 2.94.89l-7.38 7.38c-.56-.84-.89-1.85-.89-2.94 0-2.94 2.39-5.33 5.33-5.33zm0 10.67c-1.09 0-2.09-.33-2.94-.89l7.38-7.38c.56.84.89 1.85.89 2.94 0 2.94-2.39 5.33-5.33 5.33z"/></g></svg>