<svg id="Capa_1" enable-background="new 0 0 512.007 512.007" height="512" viewBox="0 0 512.007 512.007" width="512" xmlns="http://www.w3.org/2000/svg"><g><path d="m124.254 150c16.542 0 30-13.458 30-30v-60c0-16.542-13.458-30-30-30s-30 13.458-30 30v60c0 16.542 13.458 30 30 30zm-15-90c0-8.271 6.729-15 15-15s15 6.729 15 15v60c0 8.271-6.729 15-15 15s-15-6.729-15-15z"/><path d="m190.365 133.51c-4.055-9.94-6.111-20.424-6.111-31.161v-42.349c0-33.084-26.916-60-60-60s-60 26.916-60 60v42.349c0 10.737-2.056 21.221-6.111 31.161l-35.359 86.679c-15.116 37.053-22.78 76.131-22.78 116.148v138.17c0 20.678 16.822 37.5 37.5 37.5h38.209c14.295 0 27.148-7.943 33.541-20.729l8.292-16.583c1.298-2.596 3.806-4.146 6.708-4.146s5.41 1.55 6.708 4.146l8.292 16.583c6.393 12.787 19.245 20.729 33.541 20.729h38.209c20.678 0 37.5-16.822 37.5-37.5v-138.17c0-40.017-7.664-79.095-22.779-116.148zm-30.136 118.491c-10.336-7.777-22.849-12.001-35.975-12.001-13.127 0-25.64 4.224-35.975 12.001-5.663-7.526-9.025-16.878-9.025-27.001v-65.377c11.003 12.481 27.092 20.377 45 20.377s33.997-7.896 45-20.377v65.377c0 10.123-3.362 19.474-9.025 27.001zm-11.121 10.488c-7.127 4.74-15.672 7.511-24.854 7.511s-17.727-2.77-24.854-7.511c7.314-4.868 15.895-7.489 24.854-7.489 8.958 0 17.539 2.621 24.854 7.489zm-24.854-247.489c24.813 0 45 20.187 45 45v60c0 24.813-20.187 45-45 45s-45-20.187-45-45v-60c0-24.813 20.187-45 45-45zm28.416 469.569-8.292-16.583c-3.836-7.672-11.547-12.438-20.125-12.438s-16.289 4.766-20.125 12.438l-8.291 16.583c-3.836 7.671-11.548 12.438-20.125 12.438h-30.708v-61.585c0-4.142-3.358-7.5-7.5-7.5s-7.5 3.358-7.5 7.5v60.295c-8.729-3.096-15-11.432-15-21.21v-129.38c8.729 3.096 15 11.432 15 21.21v39.085c0 4.142 3.358 7.5 7.5 7.5s7.5-3.358 7.5-7.5v-39.085c0-18.081-12.863-33.214-29.919-36.729.809-35.716 8.058-70.587 21.587-103.753l27.582-67.614v66.759c0 33.084 26.916 60 60 60s60-26.916 60-60v-66.759l27.582 67.614c13.529 33.166 20.778 68.037 21.587 103.753-17.056 3.515-29.919 18.648-29.919 36.729v130.67h-30.709c-8.578 0-16.289-4.766-20.125-12.438zm65.834 11.148v-129.38c0-9.778 6.271-18.114 15-21.21v129.38c0 9.777-6.271 18.114-15 21.21z"/><path d="m387.754 150c16.542 0 30-13.458 30-30v-60c0-16.542-13.458-30-30-30s-30 13.458-30 30v60c0 16.542 13.458 30 30 30zm-15-90c0-8.271 6.729-15 15-15s15 6.729 15 15v60c0 8.271-6.729 15-15 15s-15-6.729-15-15z"/><path d="m489.224 220.189-35.359-86.679c-4.055-9.94-6.111-20.424-6.111-31.161v-42.349c0-33.084-26.916-60-60-60s-60 26.916-60 60v42.349c0 10.736-2.056 21.22-6.111 31.161l-35.359 86.679c-15.115 37.052-22.779 76.13-22.779 116.148v138.17c0 20.678 16.822 37.5 37.5 37.5h38.209c14.296 0 27.148-7.943 33.541-20.729l8.292-16.583c1.298-2.596 3.806-4.146 6.708-4.146s5.41 1.55 6.708 4.146l8.292 16.583c6.393 12.787 19.246 20.729 33.541 20.729h38.208c20.678 0 37.5-16.822 37.5-37.5v-138.17c-.001-40.018-7.665-79.095-22.78-116.148zm-65.496 31.812c-10.335-7.777-22.848-12.001-35.974-12.001-13.127 0-25.64 4.224-35.975 12.001-5.663-7.526-9.025-16.878-9.025-27.001v-65.377c11.003 12.481 27.092 20.377 45 20.377s33.997-7.896 45-20.377v65.377c0 10.123-3.362 19.474-9.026 27.001zm-11.121 10.488c-7.127 4.74-15.672 7.511-24.854 7.511s-17.727-2.77-24.854-7.511c7.314-4.868 15.895-7.489 24.854-7.489s17.54 2.621 24.854 7.489zm-24.853-247.489c24.813 0 45 20.187 45 45v60c0 24.813-20.187 45-45 45s-45-20.187-45-45v-60c0-24.813 20.187-45 45-45zm-109.25 459.507v-129.38c8.729 3.096 15 11.432 15 21.21v129.38c-8.73-3.096-15-11.433-15-21.21zm137.666 10.062-8.291-16.583c-3.836-7.672-11.547-12.438-20.125-12.438s-16.289 4.766-20.125 12.438l-8.292 16.583c-3.835 7.672-11.546 12.438-20.124 12.438h-30.709v-130.67c0-18.081-12.863-33.214-29.919-36.729.809-35.717 8.058-70.588 21.587-103.753l27.582-67.614v66.759c0 33.084 26.916 60 60 60s60-26.916 60-60v-66.759l27.582 67.614c13.529 33.165 20.778 68.036 21.587 103.753-17.056 3.515-29.919 18.648-29.919 36.729v130.67h-30.709c-8.577 0-16.289-4.766-20.125-12.438zm65.834 11.148v-129.38c0-9.777 6.27-18.114 15-21.21v129.38c-.001 9.777-6.271 18.113-15 21.21z"/></g></svg>