<?xml version="1.0" encoding="iso-8859-1"?>
<!-- Generator: Adobe Illustrator 19.0.0, SVG Export Plug-In . SVG Version: 6.00 Build 0)  -->
<svg version="1.1" id="Capa_1" xmlns="http://www.w3.org/2000/svg" xmlns:xlink="http://www.w3.org/1999/xlink" x="0px" y="0px"
	 viewBox="0 0 392.799 392.799" style="enable-background:new 0 0 392.799 392.799;" xml:space="preserve">
<g>
	<g>
		<path d="M360.752,268.288c6.656-9.216,6.656-24.064,6.656-26.112c0-2.56-2.048-4.608-4.608-5.12
			c-14.848-1.536-23.552,11.264-28.16,20.48c-17.408-19.456-43.008-20.48-44.032-20.48c-27.648,0-40.448,19.456-43.008,29.696
			c-0.512,1.024,0,2.048,0,3.072c8.192,23.552,27.648,29.696,39.936,29.696c1.536,0,2.56,0,4.096,0
			c3.072,0,27.136-2.048,43.52-20.48c4.608,9.216,13.312,22.016,28.16,20.48c2.56,0,4.608-2.56,4.608-5.12
			C367.92,292.352,367.92,277.504,360.752,268.288z M290.607,288.768h-0.512c-1.024,0-23.04,2.56-32.256-20.992
			c2.048-5.12,10.24-20.48,32.768-20.48c0.512,0,25.6,1.024,39.424,20.48C315.695,287.744,290.607,288.768,290.607,288.768z
			 M350,272.384c4.096,3.072,6.144,10.24,6.656,15.872c-8.704-3.072-13.824-15.872-15.36-19.968
			c1.536-4.096,6.656-16.896,15.36-19.968c-0.512,5.632-2.56,12.8-6.656,15.872c-1.536,1.024-2.048,2.56-2.048,4.096
			S348.976,271.36,350,272.384z"/>
	</g>
</g>
<g>
	<g>
		<circle cx="270.128" cy="262.656" r="3.072"/>
	</g>
</g>
<g>
	<g>
		<path d="M322.864,354.304c9.728-11.776,9.728-32.256,9.728-33.28c0-2.56-2.048-4.608-4.608-5.12
			c-19.456-2.048-30.72,15.872-35.84,27.648c-21.504-26.112-55.296-27.648-57.344-27.648c-43.008,0-53.76,36.352-54.272,36.864
			c-0.512,1.024,0,2.048,0,3.072c11.776,33.28,39.936,36.864,50.688,36.864c2.048,0,3.072,0,4.096,0
			c3.072,0,35.84-2.048,56.832-27.648c5.12,11.776,16.384,29.184,35.84,27.648c2.56,0,4.608-2.56,4.608-5.12
			C332.592,386.56,333.104,366.08,322.864,354.304z M234.8,382.464c-1.024,0-30.72,3.584-43.52-28.16
			c2.048-6.144,12.8-28.16,43.52-28.16c0.512,0,34.304,1.536,52.736,28.16C269.104,380.928,235.312,382.464,234.8,382.464z
			 M312.623,357.888c6.656,4.608,9.216,15.872,9.728,23.552c-13.824-2.56-21.504-22.528-23.04-27.648
			c1.536-5.12,9.216-25.088,23.04-27.648c-0.512,7.68-3.072,18.944-9.728,23.552c-1.536,1.024-2.048,2.56-2.048,4.096
			S311.599,356.864,312.623,357.888z"/>
	</g>
</g>
<g>
	<g>
		<circle cx="208.688" cy="346.624" r="3.584"/>
	</g>
</g>
<g>
	<g>
		<path d="M230.192,44.544c7.168-8.704,13.312-15.872,25.6-15.872c12.288,0,18.432,7.168,25.6,15.872
			C289.071,53.76,297.775,64,315.183,64s26.112-10.24,33.792-19.456c7.168-8.704,13.312-15.872,25.6-15.872
			c3.072,0,5.12-2.048,5.12-5.12s-2.048-5.12-5.12-5.12c-17.408,0-26.112,10.24-33.792,19.456
			c-7.168,8.704-13.312,15.872-25.6,15.872c-12.288,0-18.432-7.168-25.6-15.872c-7.68-9.216-16.384-19.456-33.792-19.456
			S229.68,28.672,222,37.888c-6.144,7.168-11.264,13.824-20.48,15.36V5.12c0-3.072-2.048-5.12-5.12-5.12
			c-3.072,0-5.12,2.048-5.12,5.12v48.128c-9.216-1.536-14.336-8.192-20.48-15.36c-7.68-9.216-16.384-19.456-33.792-19.456
			s-26.112,10.24-33.792,19.456c-7.168,8.704-13.312,15.872-25.6,15.872c-12.288,0-18.432-7.168-25.6-15.872
			c-7.68-9.216-16.384-19.456-33.792-19.456c-3.072,0-5.12,2.048-5.12,5.12c0,3.072,2.048,5.12,5.12,5.12
			c12.288,0,18.432,7.168,25.6,15.872C51.504,53.76,60.208,64,77.616,64c17.408,0,26.112-10.24,33.792-19.456
			c7.168-8.704,13.312-15.872,25.6-15.872s18.432,7.168,25.6,15.872c6.656,8.192,14.848,17.408,28.672,19.456v28.672
			c-9.216-1.536-14.336-8.192-20.48-15.36c-7.68-9.216-16.384-19.456-33.792-19.456s-26.112,10.24-33.792,19.456
			c-7.168,8.704-13.312,15.872-25.6,15.872c-12.288,0-18.432-7.168-25.6-15.872c-7.68-9.216-16.384-19.456-33.792-19.456
			c-3.072,0-5.12,2.048-5.12,5.12c0,3.072,2.048,5.12,5.12,5.12c12.288,0,18.432,7.168,25.6,15.872
			c7.68,9.216,16.384,19.456,33.792,19.456c17.408,0,26.112-10.24,33.792-19.456c7.168-8.704,13.312-15.872,25.6-15.872
			s18.432,7.168,25.6,15.872c6.656,8.192,14.848,17.408,28.672,19.456v96.256c-6.144,2.048-10.752,8.192-10.752,14.848
			c0,7.168,4.608,12.8,10.752,14.848v28.672c0,18.944-15.36,34.816-34.816,34.816c-18.944,0-34.816-15.36-34.816-34.816v-7.168
			l3.072,3.072c1.024,1.024,2.56,1.536,3.584,1.536c1.536,0,2.56-0.512,3.584-1.536c2.048-2.048,2.048-5.12,0-7.168l-10.752-10.752
			v-6.656L132.4,240.64c1.024,1.024,2.56,1.536,3.584,1.536c1.536,0,2.56-0.512,3.584-1.536c2.048-2.048,2.048-5.12,0-7.168
			l-19.968-20.48c-1.024-1.024-2.048-1.536-3.584-1.536c-1.536,0-2.56,0.512-3.584,1.536l-20.48,20.48
			c-2.048,2.048-2.048,5.12,0,7.168c2.048,2.048,5.12,2.048,7.168,0l11.264-11.264v6.656l-10.752,10.752
			c-2.048,2.048-2.048,5.12,0,7.168c2.048,2.048,5.12,2.048,7.168,0l3.072-3.072v7.168c0,25.088,19.968,45.056,45.056,45.056
			c23.552,0,43.008-18.432,45.056-41.472c0-0.512,0-0.512,0-1.024v-31.232c6.144-2.048,10.752-8.192,10.752-14.848
			c0-7.168-4.608-12.8-10.752-14.848v-96.768c13.824-2.048,21.504-11.264,28.16-19.456c7.168-8.704,13.312-15.872,25.6-15.872
			c12.288,0,18.432,7.168,25.6,15.872c7.68,9.216,16.384,19.456,33.792,19.456c17.408,0,26.112-10.24,33.792-19.456
			c7.168-8.704,13.312-15.872,25.6-15.872c3.072,0,5.12-2.048,5.12-5.12s-2.048-5.12-5.12-5.12
			c-17.408,0-26.112,10.24-33.792,19.456c-7.168,8.704-13.312,15.872-25.6,15.872c-12.288,0-18.432-7.168-25.6-15.872
			c-7.68-9.216-16.384-19.456-33.792-19.456s-26.112,10.24-33.792,19.456c-6.144,7.168-11.264,13.824-20.48,15.36V63.488
			C215.856,61.952,223.536,52.736,230.192,44.544z"/>
	</g>
</g>
<g>
</g>
<g>
</g>
<g>
</g>
<g>
</g>
<g>
</g>
<g>
</g>
<g>
</g>
<g>
</g>
<g>
</g>
<g>
</g>
<g>
</g>
<g>
</g>
<g>
</g>
<g>
</g>
<g>
</g>
</svg>
