<svg id="Capa_1" enable-background="new 0 0 511.91 511.91" height="512" viewBox="0 0 511.91 511.91" width="512" xmlns="http://www.w3.org/2000/svg"><g><g><path d="m511.094 326.165c-10.487-21.85-16.168-45.052-16.427-67.098-.246-20.938 5.434-44.111 16.427-67.013 2.979-6.205-3.485-12.909-9.811-10.09-39.774 17.731-67.961 36.241-84.603 48.646-4.798 3.577-8.907 6.844-12.34 9.691-5.459-3.296-10.985-6.715-16.383-10.058 19.148-14.589 37.164-32.685 47.569-48.062 3.058-4.519.136-10.816-5.079-11.611-55.144-8.405-115.206-24.859-166.687-39.846-3.973-1.157-8.135 1.127-9.292 5.102s1.127 8.135 5.102 9.292c48.159 14.02 103.796 29.317 156.279 38.277-10.777 13.027-25.958 27.079-41.619 38.382-8.768-5.352-17.914-10.768-27.287-15.797 5.646-6.283 10.267-10.788 10.323-10.843 2.968-2.886 3.036-7.631.151-10.6-2.884-2.968-7.629-3.036-10.598-.153-.28.271-6.556 6.385-13.697 14.592-4.456-2.115-8.945-4.097-13.456-5.898 4.178-4.491 7.246-7.483 7.291-7.528 2.968-2.885 3.035-7.63.151-10.599-2.885-2.968-7.629-3.037-10.598-.153-.259.252-5.682 5.533-12.168 12.85-5.117-1.641-10.267-3.148-15.447-4.521 3.004-3.153 5.045-5.143 5.079-5.177 2.968-2.885 3.036-7.63.151-10.599-2.885-2.968-7.629-3.037-10.598-.153-.23.224-5.239 5.104-11.386 11.975-5.281-1.094-10.586-2.05-15.908-2.869 2.846-2.978 4.759-4.845 4.795-4.879 2.968-2.886 3.036-7.631.152-10.599-2.885-2.969-7.629-3.037-10.598-.154-.262.255-5.935 5.783-12.619 13.364-5.666-.534-11.346-.908-17.033-1.133 5.159-5.671 9.22-9.634 9.282-9.695 2.968-2.886 3.036-7.631.151-10.6-2.884-2.968-7.629-3.037-10.598-.153-.405.393-9.655 9.413-18.48 20.279-7.163.166-14.326.577-21.477 1.234 7.12-8.295 13.762-14.775 13.858-14.868 2.968-2.885 3.036-7.631.151-10.599s-7.629-3.037-10.598-.153c-.601.584-14.64 14.275-24.611 28.3-5.44.876-10.866 1.894-16.272 3.059-5.742 1.238-11.348 2.589-16.835 4.051 18.931-22.582 42.095-47.107 60.819-60.523 12.855 3.895 26.399 7.991 39.874 12.019 3.968 1.187 8.143-1.068 9.329-5.034s-1.068-8.143-5.034-9.329c-14.668-4.386-29.428-8.854-43.288-13.054-2.152-.651-4.481-.304-6.348.947-25.47 17.074-59.253 54.94-81.125 83.002-29.629 10.68-55.691 25.437-80.056 45.146-2.43 1.966-9.769 7.846-14.932 11.979-6.32 5.06-6.302 15.335-.04 20.387 5.171 4.173 12.536 10.115 14.973 12.087 35.092 28.386 73.711 46.498 121.431 56.951 32.933 40.851 84.782 66.051 136.196 66.052 6.276 0 10.954-6.788 6.633-12.184-11.829-14.769-20.146-32.18-24.303-50.733 17.758-2.931 35.303-7.386 52.433-13.375 26.12-9.131 68.02-33.649 93.426-49.222 6.287 5.152 14.459 11.387 24.643 18.278 3.429 2.322 8.089 1.422 10.409-2.007s1.422-8.089-2.007-10.409c-8.768-5.933-15.973-11.363-21.677-15.956 1.444-2.741 2.219-5.84 2.187-9.081-.035-3.545-1.031-6.899-2.805-9.784 14.242-11.541 38.372-28.686 73.622-46.045-6.898 18.947-10.389 37.802-10.182 55.37.213 18.111 3.729 36.874 10.267 55.142-7.476-3.682-14.761-7.505-21.789-11.437-3.615-2.021-8.181-.731-10.202 2.882s-.731 8.181 2.882 10.202c12.793 7.157 26.4 13.96 40.445 20.221 6.701 2.991 12.898-3.657 9.812-10.085zm-248.017 62.539c-11.422-1.379-23.021-3.618-33.873-7.194-15.38-5.069-30.649-12.795-43.818-22.082-6.972-4.916-14.345-10.358-20.069-16.72 5.765.625 11.543 1.404 17.348 1.885 8.591.712 17.216 1.08 25.882 1.08 12.094 0 24.174-.716 36.184-2.111 3.448 16.039 9.677 31.342 18.346 45.142zm139.051-125.364c-24.157 14.94-68.623 41.38-95.015 50.607-51.916 18.15-107.804 21.612-161.618 10.011-24.126-5.201-47.742-12.926-69.816-24.035-21.841-10.992-40.799-25.53-59.712-40.791 18.956-15.187 37.963-29.801 59.837-40.794 57.662-28.979 126.204-37.279 189.398-25.216 25.704 4.906 50.206 13.099 73.348 25.343 21.817 11.543 42.296 25.385 63.519 37.946 1.768 1.046 1.975 2.753 1.981 3.438.008.688-.166 2.406-1.922 3.491z"/><path d="m168.784 206.966c-3.239-2.578-7.955-2.039-10.532 1.2-2.578 3.239-2.04 7.955 1.2 10.532 8.376 6.663 14.003 22.563 14.003 39.564 0 16.862-5.329 32.254-13.576 39.214-3.164 2.67-3.564 7.399-.895 10.563 1.483 1.757 3.601 2.662 5.733 2.662 1.707 0 3.424-.58 4.83-1.767 11.658-9.838 18.9-29.255 18.9-50.672-.001-21.993-7.535-41.649-19.663-51.296z"/><circle cx="109.668" cy="233.025" r="11.3"/></g></g></svg>