<svg id="Layer_1" enable-background="new 0 0 50 50" height="512" viewBox="0 0 50 50" width="512" xmlns="http://www.w3.org/2000/svg"><g><path d="m44 1.8h-6.3c-1.1 0-2 .9-2 2-5.9-1.3-9.3-2.8-14.9-2.8h-10.6c-2.3 0-4.2 1.9-4.2 4.3 0 1 .3 1.9.9 2.6-1.6.6-2.7 2.2-2.7 4 0 1 .3 1.9.9 2.6-1.6.6-2.7 2.2-2.7 4 0 1 .4 2 1 2.8-1.5.9-2.4 2.4-2.4 4 0 2.4 1.9 4.3 4.2 4.3h11.3c-2.2 3-3.4 6.7-3.4 10.4v4.1c0 2.7 2.1 4.9 4.8 4.9 1.9 0 3.6-1.2 4.4-3l1.9-4.8c1.5-3.7 4.3-6.7 7.8-8.4l3.7-1.8v.2c0 1.1.9 2 2 2h6.3c2.8 0 5-2.2 5-5v-21.4c0-2.7-2.2-5-5-5zm-12.9 29.3c-4 1.9-7.1 5.3-8.8 9.4l-1.9 4.8c-.4 1-1.4 1.7-2.5 1.7-1.5 0-2.8-1.3-2.8-2.9v-4.1c0-3.3 1.1-6.6 3-9.3l1.1-1.5c.5-.7 0-1.6-.8-1.6h-13.2c-1.2 0-2.2-1-2.2-2.3s1-2.3 2.2-2.3c.1 0 6 0 5.9 0 .6 0 1-.4 1-1s-.4-1-1-1h-4.4c-1.2 0-2.2-1-2.2-2.3s1-2.3 2.2-2.3h1.8c.4 0 4.7 0 4.5 0 .6 0 1-.4 1-1s-.4-1-1-1c-.2 0-4.6 0-4.5 0-1.2 0-2.2-1-2.2-2.3s1-2.3 2.2-2.3h1.8c.7 0 4.6 0 4.5 0 .6 0 1-.4 1-1s-.4-1-1-1c-.3 0-4.6 0-4.5 0-1.3-.1-2.3-1.2-2.3-2.5s1-2.3 2.2-2.3h10.6c5.3 0 8.2 1.4 14.9 2.9v22.9zm15.9-2.8c0 1.7-1.3 3-3 3h-6.3v-1.8-24.3-1.4h6.3c1.7 0 3 1.3 3 3z"/></g></svg>