<svg id="Capa_1" enable-background="new 0 0 512 512" height="512" viewBox="0 0 512 512" width="512" xmlns="http://www.w3.org/2000/svg"><g><circle cx="411.63" cy="210.819" r="10"/><path d="m461.796 210.816c0-27.66-22.503-50.163-50.163-50.163s-50.163 22.503-50.163 50.163c0 24.237 17.278 44.511 40.163 49.159v106.473c0 19.4-15.783 35.184-35.184 35.184-19.444 0-35.184-15.735-35.184-35.184v-286.162c0-22.124-17.999-40.123-40.123-40.123h-105.468v-20.163h25.143c5.522 0 10-4.477 10-10s-4.478-10-10-10h-70.287c-5.523 0-10 4.477-10 10s4.477 10 10 10h25.143v20.163h-57.022c-4.132-11.685-15.284-20.081-28.366-20.081-16.587 0-30.082 13.494-30.082 30.081s13.495 30.082 30.082 30.082c13.082 0 24.234-8.397 28.366-20.082h57.022v20.163h-35.183c-5.522 0-10 4.478-10 10v45.631c-30.091 18.484-50.204 51.702-50.204 89.533v246.511c0 22.056 17.944 40 40 40h130.775c22.056 0 40-17.944 40-40 0-50.273 0-196.438 0-246.511 0-37.83-20.112-71.048-50.204-89.532v-45.632c0-5.522-4.478-10-10-10h-35.184v-20.163h105.469c11.096 0 20.123 9.027 20.123 20.123v286.163c0 30.496 24.679 55.184 55.184 55.184 30.429 0 55.184-24.755 55.184-55.184v-106.473c22.885-4.648 40.163-24.923 40.163-49.16zm-381.51-150.571c-5.56 0-10.082-4.522-10.082-10.082 0-5.559 4.522-10.081 10.082-10.081 5.559 0 10.081 4.522 10.081 10.081 0 5.56-4.522 10.082-10.081 10.082zm10.15 160.571h170.477c.288 4.863.084 11.453.149 30.204h-170.776c.076-19.221-.143-25.254.15-30.204zm170.625 150.694h-170.775v-100.489h170.775zm0 50.204h-170.775v-30.204h170.775zm-20 70.286h-130.775c-11.028 0-20-8.972-20-20v-30.286h170.775v30.286c0 11.028-8.971 20-20 20zm16.336-291.184h-163.447c10.599-34.872 43.046-60.326 81.335-60.326h.776c38.291 0 70.737 25.455 81.336 60.326zm-46.54-74.392c-22.125-7.794-47.461-8.069-70.367 0v-26.098h70.367zm200.776 114.556c-16.632 0-30.163-13.531-30.163-30.163s13.531-30.163 30.163-30.163 30.163 13.531 30.163 30.163-13.531 30.163-30.163 30.163z"/></g></svg>