<svg id="Capa_1" enable-background="new 0 0 512 512" height="512" viewBox="0 0 512 512" width="512" xmlns="http://www.w3.org/2000/svg"><g><path d="m255.948 277.316c0 27.395 22.288 49.682 49.683 49.682s49.682-22.287 49.682-49.682-22.287-49.683-49.682-49.683-49.683 22.288-49.683 49.683zm84.365 0c0 19.124-15.559 34.682-34.682 34.682-19.124 0-34.683-15.559-34.683-34.682 0-19.124 15.559-34.683 34.683-34.683 19.123 0 34.682 15.559 34.682 34.683z"/><path d="m361.752 0h-211.505c-34.34 0-67.933 11.956-94.589 33.664-3.212 2.616-3.695 7.34-1.08 10.551s7.338 3.695 10.551 1.08c23.989-19.536 54.218-30.295 85.118-30.295h211.505c74.454 0 135.027 60.573 135.027 135.026v180.149c0 74.453-60.573 135.025-135.027 135.025h-69.32c2.789-6.077 4.415-13.196 4.415-20.263 0-7.22-1.668-14.277-4.415-20.263h69.32c52.108 0 94.5-42.393 94.5-94.5v-180.148c0-52.107-42.393-94.5-94.5-94.5h-211.505c-52.107 0-94.5 42.393-94.5 94.5v69.5c0 20.692 16.834 37.526 37.526 37.526h35.73c-3.29 6.459-4.867 13.47-4.867 20.263 0 6.84 1.597 13.84 4.866 20.263h-35.729c-43.038 0-78.052-35.014-78.052-78.051v-69.5c0-30.646 10.603-60.681 29.854-84.571 2.599-3.226 2.091-7.947-1.134-10.546-3.226-2.599-7.946-2.091-10.546 1.134-21.392 26.547-33.174 59.924-33.174 93.982v69.5c0 51.309 41.743 93.051 93.052 93.051h48.14c7.578 5.908 17.095 9.44 27.426 9.44h53.556c15.972 29.619 47.29 49.794 83.235 49.794 23.261 0 45.617-8.533 62.951-24.027 3.088-2.761 3.354-7.502.593-10.59s-7.502-3.353-10.59-.593c-14.58 13.033-33.386 20.21-52.954 20.21-43.61 0-79.497-35.444-79.497-79.497 0-43.898 35.751-79.497 79.497-79.497 43.354 0 79.497 35.207 79.497 79.497 0 13.122-3.265 26.125-9.442 37.605-1.963 3.647-.597 8.196 3.051 10.158 3.646 1.962 8.196.598 10.158-3.051 7.349-13.658 11.233-29.119 11.233-44.713 0-30.527-14.554-57.714-37.083-75.001 8.43-4.909 16.212-10.87 23.203-17.862 14.732-14.732 14.733-38.705.001-53.439-14.733-14.731-38.706-14.731-53.439 0-14.988 14.986-39.373 14.986-54.359 0-14.733-14.733-38.706-14.733-53.438 0s-14.732 38.706.001 53.438c6.992 6.992 14.773 12.953 23.203 17.862-10.602 8.135-19.438 18.461-25.822 30.298h-19.079v-33.61c0-16.714-13.598-30.312-30.312-30.312s-30.312 13.598-30.312 30.312v42.088c-.432.313-.858.634-1.278.961h-48.14c-12.421 0-22.526-10.105-22.526-22.526v-69.5c0-43.836 35.664-79.5 79.5-79.5h211.505c43.837 0 79.5 35.664 79.5 79.5v180.149c0 43.836-35.664 79.5-79.5 79.5h-80.101c-8.722-8.273-20.49-13.365-33.432-13.365h-71.703c-6.847-11.053-19.081-18.434-33.01-18.434-18.447 0-33.917 12.941-37.838 30.218h-7.523c-20.316 0-36.844 16.528-36.844 36.844s16.528 36.844 36.844 36.844h7.523c3.92 17.281 19.391 30.222 37.838 30.222 13.93 0 26.164-7.381 33.01-18.434h71.703c12.942 0 24.71-5.092 33.432-13.365h80.101c82.725 0 150.027-67.301 150.027-150.025v-180.15c0-82.724-67.302-150.026-150.027-150.026zm-98.992 193.09c-10.058-4.816-19.174-11.278-27.14-19.244-8.885-8.885-8.885-23.341-.001-32.226 8.884-8.884 23.34-8.886 32.226 0 10.418 10.418 24.1 15.627 37.786 15.626 13.683-.001 27.37-5.209 37.786-15.625 8.884-8.885 23.341-8.884 32.226-.001 8.884 8.885 8.884 23.342 0 32.226-7.966 7.966-17.083 14.428-27.14 19.244-13.074-6.659-27.783-10.272-42.871-10.272-14.891 0-29.645 3.535-42.872 10.272zm-51.626 84.225c0 10.45 1.762 20.671 4.76 29.703h-47.055c-16.602 0-29.703-13.564-29.703-29.703 0-16.616 13.597-29.702 29.703-29.702h26.977 20.078c-3.006 9.057-4.76 19.305-4.76 29.702zm-53.442-78.312c0-8.443 6.869-15.312 15.312-15.312s15.312 6.869 15.312 15.312v33.61h-19.477c-3.749 0-7.809.547-11.147 1.407zm-81.391 245.935c0-12.045 9.799-21.844 21.844-21.844h6.553v43.688h-6.553c-12.046 0-21.844-9.799-21.844-21.844zm67.205 52.062c-13.147 0-23.808-10.709-23.808-23.808v-56.508c0-13.073 10.639-23.808 23.808-23.808 13.102 0 23.808 10.695 23.808 23.808v56.508c-.001 13.077-10.645 23.808-23.808 23.808zm38.438-18.434c.214-1.54.369-3.688.369-5.374v-56.508c0-1.715-.16-3.865-.369-5.374h66.275c18.552 0 33.628 15.093 33.628 33.628 0 18.65-15.22 33.628-33.628 33.628z"/></g></svg>