<svg height="512" viewBox="0 0 64 64" width="512" xmlns="http://www.w3.org/2000/svg"><g id="_10-diver" data-name="10-diver"><path d="m41.586 26h-5.586a1.006 1.006 0 0 1 -.555-.168l-2.168-1.445a2.338 2.338 0 0 0 -2.554 0l-2.168 1.445a1.006 1.006 0 0 1 -.555.168h-5.586a4.413 4.413 0 0 1 -4.414-4.414v-2.586a5.006 5.006 0 0 1 5-5h3.789a4.987 4.987 0 0 1 2.773.84l1.161.773a2.338 2.338 0 0 0 2.554 0l1.16-.773a4.992 4.992 0 0 1 2.774-.84h3.789a5.006 5.006 0 0 1 5 5v2.586a4.413 4.413 0 0 1 -4.414 4.414zm-5.286-2h5.283a2.416 2.416 0 0 0 2.417-2.414v-2.586a3 3 0 0 0 -3-3h-3.789a2.989 2.989 0 0 0 -1.664.5l-1.16.773a4.37 4.37 0 0 1 -4.774 0l-1.16-.773a2.989 2.989 0 0 0 -1.664-.5h-3.789a3 3 0 0 0 -3 3v2.586a2.416 2.416 0 0 0 2.414 2.414h5.286l1.916-1.277a4.37 4.37 0 0 1 4.774 0z"/><path d="m40 23h-2.764a3.087 3.087 0 0 1 -2.636-1.354l-.448-.716a1 1 0 0 1 -.152-.53v-1.6a1 1 0 0 1 .376-.781 4.863 4.863 0 0 1 3.038-1.019h2.586a2.825 2.825 0 0 1 3 2.6v.8a2.825 2.825 0 0 1 -3 2.6zm-4-2.887.3.473a1.115 1.115 0 0 0 .941.414h2.759c.572 0 1-.317 1-.6v-.8c0-.283-.428-.6-1-.6h-2.586a3.066 3.066 0 0 0 -1.414.336z"/><path d="m26.764 23h-2.764a2.825 2.825 0 0 1 -3-2.6v-.8a2.825 2.825 0 0 1 3-2.6h2.586a4.863 4.863 0 0 1 3.038 1.019 1 1 0 0 1 .376.781v1.6a1 1 0 0 1 -.152.53l-.448.716a3.087 3.087 0 0 1 -2.636 1.354zm-2.764-4c-.572 0-1 .317-1 .6v.8c0 .283.428.6 1 .6h2.764a1.113 1.113 0 0 0 .941-.415l.3-.472v-.777a3.066 3.066 0 0 0 -1.419-.336z"/><path d="m26 34a5.134 5.134 0 0 1 -4.03-1.937l-1-1.247a9.024 9.024 0 0 1 -1.97-5.622v-1.194h2v1.194a7.027 7.027 0 0 0 1.534 4.373l1 1.246a3.145 3.145 0 0 0 2.466 1.187z"/><path d="m38 34v-2a3.143 3.143 0 0 0 2.468-1.186l1-1.248a7.027 7.027 0 0 0 1.532-4.372v-1.194h2v1.194a9.029 9.029 0 0 1 -1.972 5.622l-1 1.247a5.13 5.13 0 0 1 -4.028 1.937z"/><path d="m32 40c-4.187 0-7-2.411-7-6 0-3.776 2.993-8 7-8s7 4.224 7 8c0 3.589-2.813 6-7 6zm0-12c-2.77 0-5 3.282-5 6 0 2.949 2.583 4 5 4s5-1.051 5-4c0-2.718-2.23-6-5-6z"/><path d="m27 29h10v2h-10z"/><path d="m27 38h-4a1 1 0 0 1 -1-1v-4a1 1 0 0 1 1-1h15v2h-14v2h3z"/><path d="m41 15h-2v-.8c0-1.192-1.374-2.2-3-2.2h-8c-1.626 0-3 1.008-3 2.2v.8h-2v-.8c0-2.316 2.243-4.2 5-4.2h8c2.757 0 5 1.884 5 4.2z"/><path d="m43 15h-2a7.008 7.008 0 0 0 -7-7h-4a7.008 7.008 0 0 0 -7 7h-2a9.01 9.01 0 0 1 9-9h4a9.01 9.01 0 0 1 9 9z"/><path d="m20 19h-2v-5a13.91 13.91 0 0 1 1.077-5.395l1.846.772a11.922 11.922 0 0 0 -.923 4.623z"/><path d="m21.846 7.6-1.692-1.065a14.183 14.183 0 0 1 1.077-1.482l1.538 1.28a11.927 11.927 0 0 0 -.923 1.267z"/><path d="m46 19h-2v-5a12 12 0 0 0 -20.308-8.659l-1.384-1.441a14 14 0 0 1 23.692 10.1z"/><path d="m29 29h-3a3 3 0 0 1 -3-3v-1h2v1a1 1 0 0 0 1 1h3z"/><path d="m38 29h-3v-2h3a1 1 0 0 0 1-1v-1h2v1a3 3 0 0 1 -3 3z"/><path d="m52.993 41.045a7.02 7.02 0 0 0 -5.419-6.5l-6.8-1.568.45-1.95 6.8 1.569a9.029 9.029 0 0 1 6.968 8.361z"/><path d="m53 47h2v2h-2z"/><path d="m54 64h-44a1 1 0 0 1 -1-1v-16h2v15h42v-11h2v12a1 1 0 0 1 -1 1z"/><path d="m11.007 41.045-2-.09a9.029 9.029 0 0 1 6.968-8.361l6.8-1.569.45 1.95-6.8 1.568a7.02 7.02 0 0 0 -5.418 6.502z"/><path d="m15 33h2v3h-2z"/><path d="m15 45h2v2h-2z"/><path d="m15 49h2v14h-2z"/><path d="m23 36h2v27h-2z"/><path d="m47 33h2v8h-2z"/><path d="m47 47h2v16h-2z"/><path d="m39 32h2v31h-2z"/><path d="m35 51h-6a1 1 0 0 1 -1-1v-6a1 1 0 0 1 1-1h6a1 1 0 0 1 1 1v6a1 1 0 0 1 -1 1zm-5-2h4v-4h-4z"/><path d="m35 44h5v2h-5z"/><path d="m35 48h5v2h-5z"/><path d="m24 44h5v2h-5z"/><path d="m24 48h5v2h-5z"/><path d="m35 61h-6a1 1 0 0 1 -1-1v-6a1 1 0 0 1 1-1h6a1 1 0 0 1 1 1v6a1 1 0 0 1 -1 1zm-5-2h4v-4h-4z"/><path d="m35 54h5v2h-5z"/><path d="m35 58h5v2h-5z"/><path d="m24 54h5v2h-5z"/><path d="m24 58h5v2h-5z"/><path d="m14 35h-2v-9a7.008 7.008 0 0 1 7-7v2a5.006 5.006 0 0 0 -5 5z"/><path d="m52 32h-2v-6a5.006 5.006 0 0 0 -5-5v-2a7.008 7.008 0 0 1 7 7z"/><path d="m42 39h4v2h-4z"/><path d="m43 40h2v7h-2z"/><path d="m13 34h-3a1 1 0 0 1 -1-1v-6a1 1 0 0 1 1-1h3v2h-2v4h2z"/><path d="m10.257 45h-.257a8 8 0 0 1 0-16v2a6 6 0 0 0 0 12h.257a5.575 5.575 0 0 0 5.3-3.816 7.569 7.569 0 0 1 7.186-5.184h.257v2h-.257a5.575 5.575 0 0 0 -5.295 3.816 7.569 7.569 0 0 1 -7.191 5.184z"/><path d="m26 35h12v2h-12z"/><path d="m53 45h-9v-2h9a7 7 0 0 0 0-14h-2v-2h2a9 9 0 0 1 0 18z"/></g></svg>