<svg id="Capa_1" enable-background="new 0 0 512 512" height="512" viewBox="0 0 512 512" width="512" xmlns="http://www.w3.org/2000/svg"><g><path d="m504.5 72.145h-16.032c-1.418 0-2.805.133-4.155.375-9.058-10.442-22.041-16.407-35.926-16.407-26.236 0-47.581 21.345-47.581 47.581 0 .174.012.347.014.52-.445-.007-.89-.009-1.337.003-8.428.214-16.265 3.7-22.063 9.812l-10.957 11.533-11.998-11.399c-4.557-4.33-10.521-6.637-16.811-6.465-6.284.161-12.129 2.759-16.459 7.316l-75.262 79.218c-8.938 9.407-8.556 24.331.851 33.268l12.001 11.403-16.634 17.508-90.741-51.848c-9.12-5.215-19.775-5.35-28.687-1.317l-111.763-58.11c-2.326-1.208-5.112-1.116-7.353.244-2.239 1.36-3.607 3.79-3.607 6.411v37.765.012 50.4c0 4.142 3.358 7.5 7.5 7.5h100.778c2.762 4.911 6.809 9.004 11.829 11.874l112.219 64.125c1.026.588 2.088 1.104 3.17 1.571l-1.359 3.624h-106.395c-5.73 0-11.103 1.543-15.739 4.224l-106.91 36.252c-1.997.677-3.617 2.163-4.463 4.094s-.84 4.129.016 6.056l32.064 72.146c1.006 2.265 3.067 3.886 5.505 4.332.449.082.9.122 1.348.122 1.985 0 3.912-.789 5.333-2.227l66.019-66.782c4.874 3.086 10.642 4.88 16.824 4.88h128.261c13.079 0 24.951-8.226 29.541-20.469l42.711-113.896 33.959-35.747-1.108 6.096c-.41 2.251-.489 4.542-.236 6.806l8.016 72.145c1.327 11.935 11.374 20.935 23.369 20.935.904 0 1.8-.051 2.611-.147 6.25-.689 11.856-3.773 15.785-8.684 3.927-4.908 5.707-11.052 5.012-17.299l-7.607-68.458 21.726-85.548c5.844 2.487 12.15 3.782 18.61 3.782 8.54 0 16.698-2.217 23.926-6.445 4.219 3.991 9.904 6.445 16.155 6.445h16.03c4.142 0 7.5-3.358 7.5-7.5v-64.13c0-4.142-3.358-7.5-7.5-7.5zm-394.396 141.446c-.617.864-1.197 1.767-1.735 2.708-2.654 4.642-4.054 9.764-4.161 14.964l-89.208-46.383v-20.737zm-95.104-11.804 59.009 30.681h-59.009zm81.829 152.107c-.416 2.041-.636 4.153-.636 6.315 0 2.55.312 5.027.885 7.403l-74.055 25.091-5.332-11.996zm-54.873 81.406-12.814-28.832 62.125-21.049zm229.54-69.277c-2.408 6.421-8.635 10.735-15.496 10.735h-128.258c-9.125 0-16.548-7.424-16.548-16.549s7.423-16.548 16.548-16.548h111.592c3.126 0 5.925-1.939 7.022-4.867l4.232-11.285c7.666-.645 14.938-4.093 20.267-9.699l30.929-32.557zm145.158-227.794-23.476 92.44c-.222.873-.285 1.779-.185 2.674l7.758 69.813c.252 2.265-.394 4.492-1.817 6.271-1.423 1.778-3.453 2.895-5.769 3.151-.284.033-.592.05-.914.05-4.342 0-7.98-3.264-8.461-7.591l-8.017-72.15c-.091-.817-.062-1.644.086-2.459l10.923-60.079c.741-4.076-1.962-7.98-6.037-8.721-4.075-.743-7.98 1.962-8.721 6.037l-4.918 27.048-107.124 112.765c-3.111 3.273-7.487 5.151-12.005 5.151-2.874 0-5.707-.753-8.201-2.182l-112.226-64.129c-7.923-4.529-10.686-14.656-6.159-22.575 4.53-7.923 14.657-10.685 22.577-6.158l95.849 54.767c3 1.714 6.78 1.157 9.158-1.347l85.957-90.478c2.853-3.003 2.731-7.75-.272-10.603s-7.75-2.732-10.603.272l-54.94 57.83-12-11.403c-3.41-3.241-3.549-8.651-.308-12.062l75.262-79.218c1.57-1.652 3.689-2.595 5.968-2.653 2.28-.049 4.443.775 6.095 2.344l11.998 11.4-9.204 9.688c-2.853 3.003-2.731 7.75.272 10.603s7.75 2.731 10.603-.272l30.496-32.099c3.041-3.205 7.148-5.032 11.567-5.144 4.406-.119 8.618 1.503 11.826 4.552 3.921 3.726 5.765 9.115 4.962 14.467zm14.902-6.655c-.941-7.048-4.243-13.661-9.534-18.685-1.798-1.709-3.766-3.176-5.857-4.399-.232-1.581-.358-3.186-.358-4.796 0-17.965 14.616-32.581 32.581-32.581 8.461 0 16.433 3.238 22.46 8.991-3.675 4.153-5.912 9.606-5.912 15.574v32.064c0 1.297.11 2.569.313 3.809-5.067 3.085-10.818 4.723-16.861 4.723-5.984 0-11.763-1.632-16.832-4.7zm65.444 4.7h-8.532c-4.705 0-8.532-3.828-8.532-8.533v-32.064c0-4.705 3.828-8.532 8.532-8.532h8.532z"/></g></svg>