<svg id="Capa_1" enable-background="new 0 0 512 512" height="512" viewBox="0 0 512 512" width="512" xmlns="http://www.w3.org/2000/svg"><g><g><circle cx="122.801" cy="260.247" r="11.224"/></g><path d="m511.517 172.631c1.068-2.83.279-5.693-1.508-7.641-1.784-1.946-4.564-2.978-7.483-2.153-17.839 5.041-30.366 13.321-37.234 24.613-11.836 19.458-7.446 45.038-26.87 60.745-20.952 16.943-46.447-4.69-64.911-15.175-7.679-4.359-15.661-8.398-23.725-12.005-3.758-1.677-8.158.003-9.837 3.757-1.678 3.754.003 8.158 3.757 9.838 7.632 3.413 15.185 7.235 22.451 11.359 13.185 7.484 26.036 16.334 40.668 20.804 36.645 11.196 58.116-20.862 64.981-52.591 1.517-7.011 2.95-13.634 6.211-18.996 2.961-4.867 7.697-9.022 14.145-12.428-4.46 14.065-7.266 28.53-4.625 42.764 1.266 6.831 4.072 13.13 4.389 20.212.399 8.966-4.405 18.248-8.644 26.437-1.293 2.498-1.068 5.51.58 7.788 4.618 6.382 7.299 15.564 6.673 22.849-.377 4.395-1.265 8.78-2.242 13.375-4.796-5.859-9.93-11.674-16.454-16.39-24.263-17.541-54.809-24.248-84.376-23.797-54.184.827-105.24 22.287-158.791 27.826-.876.091-1.754.172-2.632.254.62-1.921 1.396-3.977 2.342-6.094 5.632-12.595 2.746-20.821.199-28.079-1.838-5.239-3.267-10.105-2.27-15.651.531-2.953 1.191-6.629.421-10.704-.763-4.04-4.654-6.692-8.699-5.933-4.04.763-6.697 4.658-5.934 8.698.261 1.379-.066 3.198-.445 5.306-1.469 8.172.139 15.416 2.875 23.216 2.237 6.376 3.47 9.888.258 17.069-2.266 5.067-3.664 9.413-4.467 13.115-3.806.09-7.612.067-11.412-.078.672-2.293 1.586-4.823 2.759-7.447 5.632-12.595 2.746-20.82.199-28.077-1.832-5.218-3.264-10.119-2.27-15.653.531-2.953 1.191-6.628.421-10.704-.763-4.04-4.656-6.691-8.699-5.933-4.04.763-6.697 4.657-5.934 8.698.261 1.379-.066 3.198-.445 5.305-1.437 8.001.225 15.666 2.875 23.217 2.237 6.375 3.469 9.887.258 17.068-2.092 4.678-3.427 8.725-4.255 12.235-3.604-.489-7.19-1.117-10.755-1.896.535-1.526 1.16-3.119 1.889-4.749 5.632-12.595 2.746-20.82.199-28.078-1.422-4.053-2.618-7.993-2.695-12.292-.083-4.642 1.715-9.459.846-14.064-.763-4.04-4.654-6.699-8.699-5.933-4.04.763-6.697 4.658-5.934 8.698.261 1.379-.066 3.198-.445 5.306-1.469 8.178.136 15.408 2.876 23.215 2.237 6.375 3.47 9.887.258 17.068-1.128 2.522-2.019 4.844-2.75 7.019-16.309-4.916-32.501-11.655-48.264-18.221-16.395-6.829-33.21-13.831-50.521-18.992 6.253-3.728 19.396-10.153 23.188-12.003 36.341-17.728 75.188-31.353 115.602-35.884 38.005-4.261 76.943-.92 113.457 10.002 3.94 1.178 8.088-1.066 9.263-5.006 1.176-3.94-1.065-8.087-5.005-9.264-14.915-4.451-30.194-7.706-45.631-9.805-12.805-28.008-10.331-53.847-5.117-83.434 1.17-6.639-6.338-11.273-11.749-7.287-24.164 17.804-48.63 56.216-58.267 90.008-9.308 1.107-18.561 2.633-27.714 4.563-58.301 12.296-108.722 39.385-157.886 72.039-3.556 2.362-8.985 4.853-9.84 9.49-.405 2.2.202 4.476 1.652 6.182 22.781 26.802 43.42 43.845 69.012 56.988 6.269 3.219 12.874 6.231 19.631 8.954 3.634 1.464 8.172-.356 9.69-4.125 1.536-3.814-.311-8.152-4.125-9.688-6.338-2.553-12.526-5.375-18.394-8.388-5.736-2.946-11.207-6.12-16.516-9.583 12.738-1.544 26.31-5.607 36.932-14.741 3.118-2.682 3.472-7.383.791-10.501-2.682-3.118-7.383-3.472-10.5-.79-13.184 11.339-45.569 12.366-45.569 12.366-7.909-6.755-16.203-14.949-24.211-23.933 6.119-4.021 15.608-10.117 23.866-15.365 21.107 4.829 41.999 13.52 62.232 21.947 16.66 6.939 33.787 14.068 51.368 19.233.088 3.313.741 5.678 1.401 7.217 1.21 2.823 3.958 4.515 6.847 4.515 4.166 0 7.598-3.589 7.43-7.749 3.916.805 7.856 1.446 11.811 1.942.196.681.411 1.276.626 1.779 1.757 4.101 7.262 5.698 10.958 3.289.463-.302 3.155-3.87 2.946-3.879 4.143.168 8.293.201 12.444.11.121.349.244.679.368.969 1.21 2.823 3.958 4.515 6.847 4.515 3.618 0 6.77-2.711 7.343-6.273 1.62-.136 3.239-.283 4.855-.449 23.365-2.4 46.991-7.487 69.962-12.319 52.025-10.941 115.863-28.799 163.293 5.489 8.805 6.365 14.92 15.637 21.854 23.775-.978 8.108-1.386 13.912.299 23.92.391 2.319 1.034 6.146 3.098 11.312-3.26-1.35-6.144-4.087-8.687-8.973-8.132-15.622-17.094-34.362-31.435-45.41-23.93-18.435-57.697-11.007-83.092.401-18.264 8.205-38.347 14.727-57.769 21.035-4.809 1.562-9.732 3.168-14.612 4.788-4.66-3.444-9.241-6.826-13.449-10.785-4.285-4.032-10.152-9.551-21.091-5.925-5.909 1.959-23.007 8.543-25.816 9.587-9.05 3.364-15.851 12.732-9.727 22.104.433.664.889 1.32 1.355 1.973-23.183 3.057-45.007 2.897-65.832-.466-10.447-1.687-20.531-3.777-29.973-6.215-3.98-1.024-8.042 1.367-9.071 5.348-1.028 3.982 1.367 8.043 5.349 9.07 9.885 2.552 20.423 4.738 31.322 6.498 25.451 4.109 52.173 3.778 80.758-1.055 18.823 13.618 39.527 21.67 62.041 27.329 19.693 4.949 41.119 8.118 60.861 1.487 10.32-3.466 11.277-18.369 1.424-23.083-14.611-6.99-40.378-19.356-48.788-23.639-1.141-.581-2.256-1.191-3.366-1.807 21.028-6.844 42.257-13.571 62.488-22.659 15.248-6.85 30.946-10.467 45.41-10.467h.162c7.489.014 15.42 2.954 22.329 8.277 12.794 9.857 19.959 26.361 27.315 40.49 6.244 11.995 15.683 18.039 28.126 18.038 4.569 0 10.986-.1 13.144-5.041 1.001-2.293.784-4.936-.578-7.035-14.604-22.503-3.858-46.588-1.791-70.652.811-9.448-1.79-20.147-6.89-28.916 4.355-8.627 8.822-18.875 8.32-30.097-.539-12.055-6.093-23.09-5.265-35.198.878-12.871 5.465-25.274 9.981-37.24zm-263.935-38.53c-2.194 15.887-3.966 34.352 2.522 52.683 1.167 3.297 2.401 6.811 3.688 10.156-2.685-.217-5.372-.405-8.061-.553-11.373-.627-22.773-.544-34.125.192 7.291-21.953 21.018-45.702 35.976-62.478zm101.127 255.138c-.794.169-1.333.25-1.573.263-6.595.205-11.077.319-17.713.19-13.244-.258-27.112-3.781-37.714-6.821-27.464-7.876-46.801-19.109-56.017-32.522.476.504 11.001-4.272 12.026-4.666 5.033-1.935 10.074-3.852 15.194-5.549 4.022-1.332 7.507 4.029 10.258 6.227 9.505 7.596 19.821 15.539 32.204 21.846 7.515 3.827 28.418 13.886 43.335 21.032z"/></g></svg>