<svg id="Capa_1" enable-background="new 0 0 512 512" height="512" viewBox="0 0 512 512" width="512" xmlns="http://www.w3.org/2000/svg"><g><path d="m511.923 503.412c-.116-.809-3.001-20.049-15.156-39.427-7.712-12.295-20.227-26.17-39.742-33.93l-50.117-33.162 30.448-50.265c6.3-10.399 3.297-23.797-6.837-30.502l-14.138-9.355 38.979-64.378c2.089-3.45 1.082-7.933-2.281-10.159l-37.047-24.514c-1.706-1.128-3.798-1.513-5.793-1.065-1.996.447-3.722 1.69-4.782 3.439l-38.673 63.858-105.313-69.684c-7.245-4.797-16.718-4.969-24.133-.438l-63.543 38.813-97.578-64.566c-1.81-1.198-4.047-1.556-6.142-.978-2.092.575-3.834 2.028-4.775 3.984-.534 1.109-13.135 27.639-17.646 68.932-4.007 36.682-2.018 92.189 29.045 151.346-7.498 5.298-14.572 14.002-20.697 29.334-2.5 6.258-6.746 8.601-14.658 12.531-13.7 6.804-32.463 16.124-41.199 59.783-.442 2.207.13 4.497 1.557 6.239 1.428 1.742 3.561 2.752 5.813 2.752h46.085c4.15 0 7.515-3.364 7.515-7.515s-3.364-7.515-7.515-7.515h-36.649c7.544-28.592 19.491-34.526 31.079-40.283 8.054-4 17.183-8.534 21.929-20.416 9.631-24.11 19.52-26.194 34.489-29.348 2.518-.531 5.121-1.08 7.834-1.759 8.628-2.162 13.998-9.496 19.193-16.589 4.383-5.986 8.916-12.175 14.877-14.358 6.876-2.518 16.16.106 28.389 8.018 24.025 15.546 21.501 31.045 18.578 48.991-2.077 12.754-4.432 27.21 6.182 39.075 9.981 11.156 14.561 20.55 16.658 26.669h-132.5c-4.15 0-7.515 3.364-7.515 7.515s3.365 7.515 7.515 7.515h420.827c2.18 0 4.253-.947 5.68-2.595 1.428-1.649 2.068-3.836 1.757-5.993zm-97.662-278.842 24.503 16.213-8.599 14.199-24.503-16.214zm-16.358 27.086 24.472 16.193-18.542 30.619-11.848-7.84-12.651-8.371zm-26.285 43.518 50.608 33.487c3.38 2.236 4.379 6.708 2.275 10.181l-30.137 49.752-56.636-37.476zm-12.544-8.301-33.889 55.945-52.355-34.643 33.889-55.945zm-113.901-70.216c2.457-1.504 5.599-1.445 8.003.145 0 .001.001.001.001.001l40.997 27.127-33.889 55.944-31.392-20.772-41.259-27.301zm88.1 280.314h-101.413c-1.897-7.801-7.07-20.945-21.157-36.691-5.546-6.199-4.582-14.16-2.549-26.638 1.034-6.348 2.196-13.515 1.91-21.041 20.658-4.78 36.935-4.341 49.59 1.349 1 .45 2.047.663 3.078.663 2.867 0 5.606-1.65 6.858-4.434 1.702-3.786.014-8.234-3.771-9.935-15.608-7.019-34.816-7.809-58.516-2.424-3.435-9.579-10.58-19.262-24.396-28.202-38.115-24.665-53.425-3.756-63.556 10.079-3.784 5.166-7.358 10.047-10.72 10.889-2.437.611-4.9 1.13-7.281 1.632-3.681.776-7.39 1.562-11.073 2.684-29.444-55.776-31.435-108.104-27.747-142.644.565-5.297 1.282-10.33 2.09-15.1l47.711 31.57c3.415 2.272 8.109 1.368 10.414-2.12 2.29-3.461 1.341-8.123-2.12-10.414l-52.779-34.924c2.636-11.071 5.54-19.818 7.703-25.613l345.084 228.34c-12.606.332-24.282 2.917-34.843 7.655l-240.164-158.914c-3.461-2.29-8.123-1.34-10.414 2.12-2.29 3.461-1.341 8.123 2.12 10.414l233.91 154.776c-1.394 1.005-2.763 2.054-4.104 3.15-13.832-4.787-29.163-6.308-45.645-4.497-10.982 1.214-16.702-4.417-26.688-15.298-.896-.977-1.802-1.964-2.726-2.955-2.83-3.037-7.584-3.204-10.621-.376-3.037 2.829-3.205 7.584-.376 10.62.898.964 1.779 1.924 2.649 2.872 10.002 10.899 20.349 22.176 39.401 20.076 11.375-1.246 22.038-.688 31.84 1.649-2.232 2.672-4.362 5.5-6.375 8.5-8.699 12.959-13.234 25.851-15.324 33.182zm15.743 0c2.197-6.578 6.049-15.956 12.335-25.209 14.771-21.748 35.656-32.774 62.074-32.774 26.315 0 46.619 10.959 60.349 32.571 5.944 9.355 9.386 18.844 11.268 25.412z"/><path d="m206.72 160.298c16.166 0 29.318-13.173 29.318-29.366 0-16.192-13.152-29.365-29.318-29.365s-29.318 13.173-29.318 29.365 13.152 29.366 29.318 29.366zm0-43.702c7.879 0 14.289 6.43 14.289 14.336 0 7.905-6.41 14.337-14.289 14.337s-14.289-6.432-14.289-14.337c0-7.906 6.41-14.336 14.289-14.336z"/><path d="m240.857 58.732c16.166 0 29.318-13.173 29.318-29.366s-13.152-29.366-29.318-29.366-29.318 13.173-29.318 29.366 13.152 29.366 29.318 29.366zm0-43.703c7.879 0 14.289 6.431 14.289 14.337 0 7.905-6.41 14.337-14.289 14.337s-14.289-6.431-14.289-14.337c0-7.905 6.41-14.337 14.289-14.337z"/><path d="m259.465 105.208c0 16.192 13.152 29.365 29.318 29.365s29.318-13.173 29.318-29.365c0-16.193-13.152-29.366-29.318-29.366s-29.318 13.174-29.318 29.366zm29.318-14.336c7.879 0 14.289 6.431 14.289 14.337s-6.41 14.336-14.289 14.336-14.289-6.43-14.289-14.336 6.41-14.337 14.289-14.337z"/><path d="m298.242 184.344c0 16.193 13.152 29.366 29.318 29.366s29.318-13.173 29.318-29.366-13.152-29.366-29.318-29.366c-16.166.001-29.318 13.174-29.318 29.366zm29.318-14.336c7.879 0 14.289 6.432 14.289 14.337s-6.41 14.337-14.289 14.337-14.289-6.432-14.289-14.337c.001-7.906 6.411-14.337 14.289-14.337z"/><path d="m358.55 75.197c16.166 0 29.318-13.173 29.318-29.366 0-16.192-13.152-29.365-29.318-29.365s-29.318 13.173-29.318 29.365 13.153 29.366 29.318 29.366zm0-43.702c7.879 0 14.289 6.43 14.289 14.336s-6.41 14.337-14.289 14.337-14.289-6.431-14.289-14.337 6.411-14.336 14.289-14.336z"/></g></svg>