<svg id="Capa_1" enable-background="new 0 0 512.005 512.005" height="512" viewBox="0 0 512.005 512.005" width="512" xmlns="http://www.w3.org/2000/svg"><g><g><path d="m346.715 155.759c-7.336 0-95.214 0-95.214 0-4.816-5.813-12.086-9.522-20.207-9.522h-15.655c-4.126 0-7.47 3.344-7.47 7.469s3.344 7.469 7.47 7.469h15.655c6.229 0 11.297 5.067 11.297 11.297v73.114c0 6.229-5.067 11.297-11.297 11.297h-42.298c-15.94 0-31.757-4.198-45.579-12.142-30.333-17.433-46.174-49.225-46.174-83.566h83.566c4.126 0 7.469-3.344 7.469-7.469s-3.344-7.469-7.469-7.469h-119.077c-14.237 0-27-6.399-35.589-16.462 8.589-10.064 21.352-16.463 35.589-16.463h210.997c12.407 0 22.502-10.094 22.502-22.502s-10.094-22.503-22.502-22.503h-35.401c-4.126 0-7.47 3.344-7.47 7.47 0 4.125 3.344 7.469 7.47 7.469h35.401c4.17 0 7.563 3.393 7.563 7.564s-3.393 7.563-7.563 7.563h-210.997c-16.998 0-32.413 6.907-43.587 18.06-2.061-5.27-3.206-10.996-3.206-16.988 0-25.802 20.991-46.793 46.793-46.793h210.997c12.407 0 22.502-10.095 22.502-22.502 0-12.408-10.094-22.503-22.502-22.503h-35.401c-4.126 0-7.47 3.344-7.47 7.47s3.344 7.469 7.47 7.469h35.401c4.17 0 7.563 3.393 7.563 7.564 0 4.17-3.393 7.563-7.563 7.563h-210.997c-34.039-.002-61.732 27.691-61.732 61.731 0 11.02 2.916 21.365 7.997 30.33-5.081 8.966-7.997 19.311-7.997 30.331 0 34.039 27.693 61.732 61.732 61.732h36.93c18.903 30.005 52.326 49.986 90.334 49.986h42.298c8.328 0 15.757-3.906 20.567-9.976h17.331v27.77c0 1.439.416 2.849 1.198 4.058l8.532 13.185c1.43 2.21 3.829 3.413 6.279 3.413 5.795-.001 9.453-6.599 6.264-11.528 0 0-7.333-11.333-7.333-11.333v-25.564h18.358v27.77c0 1.439.416 2.849 1.198 4.058l8.531 13.185c1.43 2.21 3.829 3.413 6.278 3.413 5.839 0 9.466-6.565 6.264-11.528 0 0-7.332-11.333-7.332-11.333v-25.564c9.984 0 17.974.015 18.358.021v27.749c0 1.439.416 2.849 1.198 4.058l8.531 13.185c1.429 2.209 3.827 3.412 6.275 3.413 5.891.002 9.469-6.603 6.267-11.528 0 0-7.333-11.333-7.333-11.333v-23.702c21.297 4.947 39.87 19.46 49.469 39.533 14.842 31.036 6.48 72.28-22.556 92.1-11.174 7.628-24.538 11.745-38.066 11.745-9.716 0-18.252 5.129-23.057 12.818-7.501-5.552-19.963-11.007-39.991-11.007-.039 0-.082 0-.121 0h-55.387c-2.108 0-4.117.89-5.533 2.452-1.416 1.561-2.107 3.647-1.9 5.745.108 1.11 2.573 23.952 21.315 39.534-18.743 15.582-21.208 38.425-21.315 39.534-.206 2.098.484 4.184 1.9 5.745 1.416 1.562 3.426 2.452 5.533 2.452h55.379.121c29.062 0 42.195-11.478 47.349-18.083 9.71.049 19.424.145 29.127-.281 28.618-1.258 56.206-9.174 80.708-24.381 28.318-17.575 51.153-43.871 64.538-74.446.865-1.976 1.691-3.97 2.476-5.979 1.502-3.843-.396-8.175-4.238-9.677-3.844-1.5-8.175.396-9.676 4.238-2.58 6.602-5.619 12.966-9.059 19.077-22.954 2.781-47.003-7.387-61.114-25.668 3.58-9.24 5.566-19.268 5.566-29.757v-4.925c18.88-.379 35.095-4.803 50.551-13.752 7.877-4.562 15.383-10.667 23.096-18.824.8 6.27 1.22 12.657 1.22 19.142 0 8.106-.65 16.238-1.931 24.168-.657 4.073 2.11 7.907 6.183 8.566 4.072.652 7.907-2.111 8.566-6.184 7.765-48.025-5.96-96.975-37.498-133.635-10.461-12.16-22.685-22.791-36.155-31.499-26.544-17.164-57.865-26.704-89.51-26.704zm-284.983 51.139c-25.802 0-46.793-20.99-46.793-46.793 0-5.992 1.144-11.718 3.206-16.989 11.175 11.153 26.589 18.06 43.587 18.06h20.571v3.954c0 14.815 3.038 28.934 8.52 41.768zm261.295 40.01h-65.531c.022-.438.034-.878.034-1.321v-73.114c0-.597-.027-1.188-.067-1.775h64.252c11.906 23.334 12.45 52.501 1.312 76.21zm-10.628 229.861c-2.258 3.101-11.236 12.652-35.892 12.652-.033 0-.07 0-.104 0h-46.017c2.582-7.825 8.439-19.396 21.387-26.175 2.463-1.29 4.005-3.839 4.005-6.618s-1.543-5.328-4.005-6.618c-13.001-6.807-18.843-18.355-21.409-26.175h46.046.108c24.756 0 33.55 9.354 35.88 12.653v40.281zm78.95-208.937c-14.209-12.111-32.312-19.782-52.152-20.806 9.33-24.233 8.916-52.335-1.037-76.328h8.555c25.308 0 49.169 6.295 70.117 17.387 7.893 27.152-1.996 57.895-25.483 79.747zm-44.623 203.558c-.13 0-.264-.001-.394-.001l-18.993-.049v-36.871c0-.006-.001-.013-.001-.019v-.192c0-6.745 5.487-12.232 12.233-12.232 7.539 0 14.842-1.023 21.784-2.925 5.196 18.692 18.419 34.739 35.505 43.735-15.958 5.643-32.856 8.554-50.134 8.554zm121.102-61.206c-9.778 13.272-21.737 24.921-35.535 34.491-5.134 3.561-10.458 6.76-15.928 9.629-19.519-4.556-36.02-21.061-40.941-40.479 13.907-6.734 25.653-17.255 33.895-30.213 14.939 16.094 36.563 25.889 58.509 26.572zm-2.569-102.385c-13.433 7.778-27.647 11.545-44.351 11.754-2.669-15.454-9.399-29.533-19.052-41.098 23.271-21.829 34.994-51.407 32.19-79.723 28.274 20.245 49.257 50.042 58.219 84.627-9.443 11.465-18.043 19.249-27.006 24.44z"/><path d="m153.839 178.631c-3.742 2.185-6.86 6.546-6.859 10.989 0 6.667 5.405 12.071 12.072 12.071s12.072-5.405 12.072-12.072c-.001-8.525-9.375-15.607-17.285-10.988z"/></g></g></svg>