<svg id="Layer_1" enable-background="new 0 0 50 50" height="512" viewBox="0 0 50 50" width="512" xmlns="http://www.w3.org/2000/svg"><g><path d="m1 43.2c0 2.8 2.2 5 5 5h6.3c1.1 0 2-.9 2-2l7.6 1.9c3.9 1 6.4 1 13.1.9h4.9c2.3 0 4.1-1.8 4.2-4.1 0-.2 0-.4 0-.6-.1-.6-.4-1.5-.9-2.2 1.5-.6 2.6-2.1 2.7-3.8 0-.2 0-.4 0-.6-.1-.6-.4-1.5-.9-2.2 1.6-.6 2.7-2.2 2.7-4 0-1.1-.4-2-1-2.8 1.4-.7 2.4-2.2 2.4-3.9 0-2.4-1.9-4.3-4.2-4.3h-11.4c2.2-3 3.4-6.7 3.4-10.4v-4.2c0-2.8-1.9-4.4-3.9-4.8-3.9-.8-5.2 2.5-6.2 5.1-1.2 3.3-3 8.2-8.8 11l-3.7 1.8v-.2c0-2-2.1-2-2.8-2-1.4 0-2.9.2-5.4 0-2.8 0-5 2.2-5 5v21.4zm13.3-22 4.6-2.2c6.5-3.1 8.6-8.7 9.8-12.1.8-2.2 1.6-4.3 3.9-3.8 1 .2 2.2 1.1 2.2 2.8v4.1c0 3.3-1.1 6.6-3 9.3l-1.1 1.5c-.5.6 0 1.6.8 1.6h13.3c1.2 0 2.2 1 2.2 2.3s-1 2.3-2.2 2.3c-.1 0-6 0-5.9 0-.6 0-1 .4-1 1s.4 1 1 1h4.5c1.2 0 2.2 1 2.2 2.3s-1 2.3-2.2 2.3c-.7 0-6.5 0-6.3 0-.6 0-1 .4-1 1s.4 1 1 1c.2 0 4.6 0 4.5 0 1.8 0 2.2 1.7 2.2 2.2v.2c0 1.3-1 2.3-2.2 2.3-.2 0-5.9 0-6.3 0-.6 0-1 .4-1 1s.4 1 1 1c.2 0 4.6 0 4.5 0 1.8 0 2.2 1.7 2.2 2.2v.2c0 1.3-1 2.3-2.2 2.3-1.9 0-3.5 0-4.9 0-6.7 0-8.9 0-12.6-.9l-8-2.1zm-11.3.5c0-1.7 1.3-3 2.9-3 2.4.1 4.3 0 5.5 0 .5 0 .7 0 .8.1v27.4h-.1-6.1c-1.7 0-3-1.3-3-3z"/></g></svg>