<svg id="Capa_1" enable-background="new 0 0 511.711 511.711" height="512" viewBox="0 0 511.711 511.711" width="512" xmlns="http://www.w3.org/2000/svg"><path d="m412.741 105.619c-1.478-3.868-5.813-5.807-9.684-4.327-3.869 1.479-5.806 5.815-4.327 9.684 7.817 20.444 12.061 41.602 12.634 62.971-11.896 3.908-25.684 3.497-41.913-1.236-11.556-19.117-15.743-38.457-18.409-59.742-.312-2.45-1.795-4.5-3.768-5.603-16.058-8.98-22.82-43.804-24.929-64.382 14.653 3.04 29.389 9.295 43.927 18.677 7.492 4.836 13.807 11.537 18.262 19.381 1.047 1.841 2.113 3.783 3.17 5.773 1.943 3.658 6.485 5.05 10.143 3.105 3.657-1.943 5.048-6.483 3.105-10.142-1.124-2.116-2.26-4.185-3.376-6.147-5.643-9.935-13.654-18.432-23.169-24.573-19.486-12.576-39.469-20.131-59.392-22.455-3.705-.432-6.95-2.486-8.903-5.636l-10.805-17.42c-1.951-3.146-5.931-4.418-9.363-2.925-20.245 8.799-39.929 8.8-60.178 0-3.412-1.484-7.399-.239-9.363 2.925l-10.803 17.421c-1.954 3.15-5.199 5.205-8.904 5.636-.039.005-.077.011-.116.015l-.021.003c-.001 0-.002 0-.003 0-19.537 2.303-39.132 9.631-58.242 21.789-10.188 6.481-18.736 15.534-24.723 26.181-18.806 33.446-28.332 68.598-28.313 104.48.002 2.972 1.757 5.662 4.477 6.86 16.985 7.481 36.491 7.578 59.634.29 1.677-.528 3.115-1.628 4.063-3.109 7.975-12.454 13.943-26.88 17.843-43.087 3.087 15.078 4.455 39.7 1.991 82.138-.001.013-.005.026-.005.039-4.772 82.083-18.976 188.852-1.077 277.796.992 4.93 5.261 5.865 10.072 7.416 8.836 2.849 17.53 4.295 26.043 4.295 10.34 0 20.411-2.102 30.141-6.305 2.338-1.01 4.003-3.137 4.423-5.648l12.973-77.605 12.973 77.605c.421 2.515 2.09 4.64 4.423 5.648 2.422 1.046 4.864 1.962 7.327 2.748 17.239 5.5 35.459 4.623 54.276-2.635 2.393-.923 4.147-3.004 4.653-5.518 17.86-88.747 3.736-194.835-1.084-277.906-.001-.016-.005-.032-.006-.048-1.699-29.306-2.483-60.176 2.061-81.779 3.901 16.108 9.845 30.455 17.78 42.847.948 1.481 2.387 2.581 4.063 3.109 23.139 7.286 42.646 7.192 59.634-.29 2.719-1.198 4.475-3.888 4.477-6.859.012-24.947-4.593-49.66-13.692-73.455zm-186.897-88.832c19.943 7.191 40.08 7.191 60.023 0 5.7 7.587 8.289 18.538 21.171 23.238.544 6.48 1.794 17.777 4.515 29.993 4.801 21.553 12.12 36.861 21.811 45.663-14.269 25.298-11.714 75.246-10.096 104.248l-50.331 63.587c-1.783 2.251-4.452 3.543-7.322 3.543h-19.772c-2.871 0-5.54-1.291-7.321-3.542l-11.833-14.95c-1.136-1.435-2.692-2.342-4.355-2.686-2.099-.435-4.369.025-6.18 1.46-3.248 2.571-3.797 7.288-1.227 10.536l11.833 14.95c4.645 5.867 11.6 9.232 19.083 9.232h19.772c7.481 0 14.437-3.365 19.083-9.232l39.996-50.53c5.511 78.675 15.753 171.906.914 250.614-15.083 5.045-29.117 5.114-42.681.205l-19.673-117.688c-1.371-8.195-13.392-8.387-14.795 0l-19.673 117.688c-11.867 4.296-24.095 4.781-37.072 1.454-.141-.036-.285-.081-.426-.118-1.714-.45-3.441-.959-5.182-1.541-14.766-78.312-4.665-171.097.893-250.317l12.029 15.197c.964 1.218 2.23 2.056 3.607 2.493 2.295.728 4.899.34 6.929-1.267.203-.161.395-.33.577-.506 1.454-1.412 2.227-3.305 2.266-5.226.034-1.681-.493-3.383-1.618-4.804l-22.362-28.251c1.641-29.293 4.296-79.174-10.13-104.638 19.852-18.222 25.003-59.686 26.268-75.528 12.393-4.461 14.923-14.246 21.279-23.277zm-83.584 155.925c-16.228 4.731-30.013 5.143-41.913 1.235.849-31.504 9.692-62.431 26.319-92.003 4.779-8.499 11.591-15.718 19.699-20.876 14.184-9.024 28.563-15.072 42.864-18.058-2.124 20.586-8.899 55.398-24.919 64.357-2.294 1.283-3.749 3.674-3.835 6.302-.021.105-2.032 32.271-18.215 59.043z"/></svg>